JetBrainsMono-ExtraBold.ufo
<glyph name="dollar" format="2">
  <advance width="600"/>
  <unicode hex="0024"/>
  <outline>
    <contour>
      <point x="264" y="-140" type="line"/>
      <point x="329" y="-140" type="line"/>
      <point x="329" y="-9" type="line"/>
      <point x="466" y="1"/>
      <point x="553" y="85"/>
      <point x="553" y="206" type="curve" smooth="yes"/>
      <point x="553" y="324"/>
      <point x="485" y="402"/>
      <point x="356" y="432" type="curve" smooth="yes"/>
      <point x="329" y="438" type="line"/>
      <point x="329" y="607" type="line"/>
      <point x="369" y="598"/>
      <point x="391" y="572"/>
      <point x="391" y="535" type="curve"/>
      <point x="541" y="535" type="line"/>
      <point x="541" y="651"/>
      <point x="460" y="728"/>
      <point x="329" y="739" type="curve"/>
      <point x="329" y="870" type="line"/>
      <point x="264" y="870" type="line"/>
      <point x="264" y="738" type="line"/>
      <point x="136" y="727"/>
      <point x="57" y="647"/>
      <point x="57" y="529" type="curve" smooth="yes"/>
      <point x="57" y="414"/>
      <point x="129" y="331"/>
      <point x="253" y="302" type="curve" smooth="yes"/>
      <point x="264" y="299" type="line"/>
      <point x="264" y="124" type="line"/>
      <point x="222" y="134"/>
      <point x="197" y="162"/>
      <point x="197" y="200" type="curve"/>
      <point x="47" y="200" type="line"/>
      <point x="47" y="82"/>
      <point x="131" y="3"/>
      <point x="264" y="-8" type="curve"/>
    </contour>
    <contour>
      <point x="329" y="122" type="curve"/>
      <point x="329" y="352" type="line"/>
      <point x="270" y="290" type="line"/>
      <point x="353" y="295"/>
      <point x="403" y="256"/>
      <point x="403" y="199" type="curve" smooth="yes"/>
      <point x="403" y="156"/>
      <point x="376" y="129"/>
    </contour>
    <contour>
      <point x="264" y="387" type="line"/>
      <point x="318" y="447" type="line"/>
      <point x="250" y="443"/>
      <point x="207" y="481"/>
      <point x="207" y="535" type="curve" smooth="yes"/>
      <point x="207" y="573"/>
      <point x="227" y="598"/>
      <point x="264" y="607" type="curve"/>
    </contour>
  </outline>
</glyph>
<glyph name="parenleft" format="2">
  <advance width="600"/>
  <unicode hex="0028"/>
  <outline>
    <contour>
      <point x="485" y="-120" type="curve"/>
      <point x="485" y="32" type="line"/>
      <point x="373" y="59"/>
      <point x="305" y="149"/>
      <point x="305" y="269" type="curve" smooth="yes"/>
      <point x="305" y="450" type="line" smooth="yes"/>
      <point x="305" y="573"/>
      <point x="372" y="662"/>
      <point x="485" y="690" type="curve"/>
      <point x="485" y="840" type="line"/>
      <point x="278" y="784"/>
      <point x="155" y="640"/>
      <point x="155" y="450" type="curve" smooth="yes"/>
      <point x="155" y="269" type="line" smooth="yes"/>
      <point x="155" y="76"/>
      <point x="273" y="-63"/>
    </contour>
  </outline>
</glyph>
<glyph name="hyphen" format="2">
  <advance width="600"/>
  <unicode hex="002D"/>
  <outline>
    <contour>
      <point x="122" y="260" type="line"/>
      <point x="472" y="260" type="line"/>
      <point x="494" y="400" type="line"/>
      <point x="144" y="400" type="line"/>
    </contour>
  </outline>
</glyph>
<glyph name="period" format="2">
  <advance width="600"/>
  <unicode hex="002E"/>
  <outline>
    <contour>
      <point x="254" y="-10" type="curve" smooth="yes"/>
      <point x="316" y="-10"/>
      <point x="362" y="29"/>
      <point x="371" y="91" type="curve" smooth="yes"/>
      <point x="381" y="153"/>
      <point x="348" y="192"/>
      <point x="286" y="192" type="curve" smooth="yes"/>
      <point x="224" y="192"/>
      <point x="179" y="153"/>
      <point x="169" y="91" type="curve" smooth="yes"/>
      <point x="160" y="29"/>
      <point x="192" y="-10"/>
    </contour>
  </outline>
</glyph>
<glyph name="three" format="2">
  <advance width="600"/>
  <unicode hex="0033"/>
  <outline>
    <contour>
      <point x="296" y="-10" type="curve" smooth="yes"/>
      <point x="446" y="-10"/>
      <point x="540" y="71"/>
      <point x="540" y="200" type="curve" smooth="yes"/>
      <point x="540" y="259" type="line" smooth="yes"/>
      <point x="540" y="389"/>
      <point x="446" y="471"/>
      <point x="296" y="471" type="curve"/>
      <point x="296" y="403" type="line"/>
      <point x="512" y="614" type="line"/>
      <point x="512" y="730" type="line"/>
      <point x="87" y="730" type="line"/>
      <point x="87" y="605" type="line"/>
      <point x="354" y="605" type="line"/>
      <point x="206" y="460" type="line"/>
      <point x="206" y="344" type="line"/>
      <point x="296" y="344" type="line" smooth="yes"/>
      <point x="356" y="344"/>
      <point x="390" y="313"/>
      <point x="390" y="258" type="curve" smooth="yes"/>
      <point x="390" y="200" type="line" smooth="yes"/>
      <point x="390" y="145"/>
      <point x="357" y="115"/>
      <point x="296" y="115" type="curve" smooth="yes"/>
      <point x="236" y="115"/>
      <point x="202" y="146"/>
      <point x="202" y="200" type="curve"/>
      <point x="52" y="200" type="line"/>
      <point x="52" y="71"/>
      <point x="146" y="-10"/>
    </contour>
  </outline>
</glyph>
<glyph name="four" format="2">
  <advance width="600"/>
  <unicode hex="0034"/>
  <outline>
    <contour>
      <point x="326" y="0" type="line"/>
      <point x="476" y="0" type="line"/>
      <point x="543" y="420" type="line"/>
      <point x="393" y="420" type="line"/>
      <point x="368" y="264" type="line"/>
      <point x="188" y="264" type="line"/>
      <point x="193" y="298" type="line"/>
      <point x="561" y="730" type="line"/>
      <point x="396" y="730" type="line"/>
      <point x="60" y="343" type="line"/>
      <point x="27" y="134" type="line"/>
      <point x="347" y="134" type="line"/>
    </contour>
  </outline>
</glyph>
<glyph name="six" format="2">
  <advance width="600"/>
  <unicode hex="0036"/>
  <outline>
    <contour>
      <point x="255" y="-10" type="curve" smooth="yes"/>
      <point x="408" y="-10"/>
      <point x="525" y="85"/>
      <point x="547" y="226" type="curve" smooth="yes"/>
      <point x="568" y="358"/>
      <point x="505" y="446"/>
      <point x="391" y="446" type="curve" smooth="yes"/>
      <point x="334" y="446"/>
      <point x="293" y="421"/>
      <point x="257" y="378" type="curve"/>
      <point x="251" y="382" type="line"/>
      <point x="510" y="730" type="line"/>
      <point x="346" y="730" type="line"/>
      <point x="145" y="456" type="line" smooth="yes"/>
      <point x="84" y="372"/>
      <point x="49" y="302"/>
      <point x="40" y="242" type="curve" smooth="yes"/>
      <point x="16" y="91"/>
      <point x="102" y="-10"/>
    </contour>
    <contour>
      <point x="275" y="115" type="curve" smooth="yes"/>
      <point x="210" y="115"/>
      <point x="173" y="160"/>
      <point x="183" y="224" type="curve" smooth="yes"/>
      <point x="193" y="289"/>
      <point x="245" y="335"/>
      <point x="310" y="335" type="curve" smooth="yes"/>
      <point x="375" y="335"/>
      <point x="411" y="289"/>
      <point x="401" y="224" type="curve" smooth="yes"/>
      <point x="391" y="160"/>
      <point x="340" y="115"/>
    </contour>
  </outline>
</glyph>
<glyph name="nine" format="2">
  <advance width="600"/>
  <unicode hex="0039"/>
  <outline>
    <contour>
      <point x="168" y="0" type="line"/>
      <point x="334" y="0" type="line"/>
      <point x="484" y="275" type="line" smooth="yes"/>
      <point x="530" y="359"/>
      <point x="555" y="430"/>
      <point x="555" y="492" type="curve" smooth="yes"/>
      <point x="555" y="637"/>
      <point x="449" y="740"/>
      <point x="300" y="740" type="curve" smooth="yes"/>
      <point x="151" y="740"/>
      <point x="45" y="641"/>
      <point x="45" y="501" type="curve" smooth="yes"/>
      <point x="45" y="371"/>
      <point x="124" y="278"/>
      <point x="236" y="278" type="curve" smooth="yes"/>
      <point x="293" y="278"/>
      <point x="334" y="303"/>
      <point x="363" y="346" type="curve"/>
      <point x="370" y="342" type="line"/>
    </contour>
    <contour>
      <point x="300" y="389" type="curve" smooth="yes"/>
      <point x="236" y="389"/>
      <point x="191" y="436"/>
      <point x="191" y="503" type="curve" smooth="yes"/>
      <point x="191" y="568"/>
      <point x="236" y="615"/>
      <point x="300" y="615" type="curve" smooth="yes"/>
      <point x="364" y="615"/>
      <point x="409" y="568"/>
      <point x="409" y="503" type="curve" smooth="yes"/>
      <point x="409" y="436"/>
      <point x="364" y="389"/>
    </contour>
  </outline>
</glyph>
<glyph name="H" format="2">
  <advance width="600"/>
  <unicode hex="0048"/>
  <anchor x="256" y="0" name="bottom"/>
  <anchor x="314" y="365" name="center"/>
  <anchor x="372" y="730" name="top"/>
  <anchor x="92" y="730" name="topleft"/>
  <outline>
    <contour>
      <point x="22" y="0" type="line"/>
      <point x="172" y="0" type="line"/>
      <point x="221" y="310" type="line"/>
      <point x="389" y="310" type="line"/>
      <point x="340" y="0" type="line"/>
      <point x="490" y="0" type="line"/>
      <point x="606" y="730" type="line"/>
      <point x="456" y="730" type="line"/>
      <point x="411" y="450" type="line"/>
      <point x="243" y="450" type="line"/>
      <point x="288" y="730" type="line"/>
      <point x="138" y="730" type="line"/>
    </contour>
  </outline>
</glyph>
<glyph name="I" format="2">
  <advance width="600"/>
  <unicode hex="0049"/>
  <anchor x="256" y="0" name="bottom"/>
  <anchor x="280" y="0" name="ogonek"/>
  <anchor x="372" y="730" name="top"/>
  <anchor x="92" y="730" name="topleft"/>
  <outline>
    <contour>
      <point x="36" y="0" type="line"/>
      <point x="476" y="0" type="line"/>
      <point x="497" y="130" type="line"/>
      <point x="352" y="130" type="line"/>
      <point x="426" y="600" type="line"/>
      <point x="571" y="600" type="line"/>
      <point x="592" y="730" type="line"/>
      <point x="152" y="730" type="line"/>
      <point x="131" y="600" type="line"/>
      <point x="276" y="600" type="line"/>
      <point x="202" y="130" type="line"/>
      <point x="57" y="130" type="line"/>
    </contour>
  </outline>
</glyph>
<glyph name="M" format="2">
  <advance width="600"/>
  <unicode hex="004D"/>
  <anchor x="256" y="0" name="bottom"/>
  <anchor x="372" y="730" name="top"/>
  <outline>
    <contour>
      <point x="-2" y="0" type="line"/>
      <point x="135" y="0" type="line"/>
      <point x="167" y="200" type="line" smooth="yes"/>
      <point x="191" y="353"/>
      <point x="204" y="541"/>
      <point x="206" y="640" type="curve"/>
      <point x="242" y="310" type="line"/>
      <point x="369" y="310" type="line"/>
      <point x="505" y="640" type="line"/>
      <point x="477" y="537"/>
      <point x="432" y="346"/>
      <point x="409" y="200" type="curve" smooth="yes"/>
      <point x="377" y="0" type="line"/>
      <point x="514" y="0" type="line"/>
      <point x="630" y="730" type="line"/>
      <point x="458" y="730" type="line"/>
      <point x="355" y="500" type="line" smooth="yes"/>
      <point x="334" y="452"/>
      <point x="321" y="414"/>
      <point x="317" y="399" type="curve"/>
      <point x="318" y="414"/>
      <point x="317" y="452"/>
      <point x="310" y="500" type="curve" smooth="yes"/>
      <point x="280" y="730" type="line"/>
      <point x="114" y="730" type="line"/>
    </contour>
  </outline>
</glyph>
<glyph name="V" format="2">
  <advance width="600"/>
  <unicode hex="0056"/>
  <anchor x="256" y="0" name="bottom"/>
  <anchor x="372" y="730" name="top"/>
  <outline>
    <contour>
      <point x="162" y="0" type="line"/>
      <point x="352" y="0" type="line"/>
      <point x="647" y="730" type="line"/>
      <point x="493" y="730" type="line"/>
      <point x="322" y="270" type="line" smooth="yes"/>
      <point x="310" y="237"/>
      <point x="292" y="178"/>
      <point x="282" y="144" type="curve"/>
      <point x="281" y="178"/>
      <point x="279" y="237"/>
      <point x="277" y="269" type="curve" smooth="yes"/>
      <point x="249" y="730" type="line"/>
      <point x="97" y="730" type="line"/>
    </contour>
  </outline>
</glyph>
<glyph name="W" format="2">
  <advance width="600"/>
  <unicode hex="0057"/>
  <anchor x="300" y="0" name="bottom"/>
  <anchor x="300" y="730" name="top"/>
  <outline>
    <contour>
      <point x="78" y="0" type="line"/>
      <point x="235" y="0" type="line"/>
      <point x="289" y="485" type="line" smooth="yes"/>
      <point x="293" y="519"/>
      <point x="297" y="594"/>
      <point x="300" y="640" type="curve"/>
      <point x="303" y="594"/>
      <point x="308" y="519"/>
      <point x="312" y="485" type="curve" smooth="yes"/>
      <point x="361" y="0" type="line"/>
      <point x="517" y="0" type="line"/>
      <point x="590" y="730" type="line"/>
      <point x="466" y="730" type="line"/>
      <point x="432" y="242" type="line" smooth="yes"/>
      <point x="430" y="213"/>
      <point x="427" y="144"/>
      <point x="426" y="100" type="curve"/>
      <point x="421" y="144"/>
      <point x="413" y="213"/>
      <point x="410" y="242" type="curve" smooth="yes"/>
      <point x="358" y="730" type="line"/>
      <point x="244" y="730" type="line"/>
      <point x="190" y="242" type="line" smooth="yes"/>
      <point x="187" y="213"/>
      <point x="180" y="144"/>
      <point x="176" y="100" type="curve"/>
      <point x="175" y="144"/>
      <point x="172" y="213"/>
      <point x="170" y="242" type="curve" smooth="yes"/>
      <point x="133" y="730" type="line"/>
      <point x="10" y="730" type="line"/>
    </contour>
  </outline>
</glyph>
<glyph name="Y" format="2">
  <advance width="600"/>
  <unicode hex="0059"/>
  <anchor x="300" y="0" name="bottom"/>
  <anchor x="300" y="730" name="top"/>
  <anchor x="20" y="730" name="topleft"/>
  <outline>
    <contour>
      <point x="225" y="0" type="line"/>
      <point x="375" y="0" type="line"/>
      <point x="375" y="260" type="line"/>
      <point x="585" y="730" type="line"/>
      <point x="429" y="730" type="line"/>
      <point x="340" y="510" type="line" smooth="yes"/>
      <point x="322" y="466"/>
      <point x="309" y="410"/>
      <point x="303" y="380" type="curve"/>
      <point x="297" y="410"/>
      <point x="282" y="466"/>
      <point x="264" y="510" type="curve" smooth="yes"/>
      <point x="172" y="730" type="line"/>
      <point x="15" y="730" type="line"/>
      <point x="225" y="260" type="line"/>
    </contour>
  </outline>
</glyph>
<glyph name="e" format="2">
  <advance width="600"/>
  <unicode hex="0065"/>
  <anchor x="256" y="0" name="bottom"/>
  <anchor x="305" y="0" name="ogonek"/>
  <anchor x="343" y="550" name="top"/>
  <outline>
    <contour>
      <point x="255" y="-10" type="curve" smooth="yes"/>
      <point x="374" y="-10"/>
      <point x="476" y="54"/>
      <point x="515" y="150" type="curve"/>
      <point x="368" y="150" type="line"/>
      <point x="354" y="122"/>
      <point x="323" y="105"/>
      <point x="276" y="105" type="curve" smooth="yes"/>
      <point x="209" y="105"/>
      <point x="181" y="141"/>
      <point x="192" y="210" type="curve" smooth="yes"/>
      <point x="197" y="240" type="line"/>
      <point x="534" y="240" type="line"/>
      <point x="550" y="340" type="line" smooth="yes"/>
      <point x="571" y="472"/>
      <point x="492" y="560"/>
      <point x="346" y="560" type="curve" smooth="yes"/>
      <point x="199" y="560"/>
      <point x="91" y="472"/>
      <point x="70" y="340" type="curve" smooth="yes"/>
      <point x="49" y="210" type="line" smooth="yes"/>
      <point x="28" y="78"/>
      <point x="108" y="-10"/>
    </contour>
    <contour>
      <point x="403" y="317" type="line"/>
      <point x="415" y="327" type="line"/>
      <point x="210" y="325" type="line"/>
      <point x="213" y="340" type="line" smooth="yes"/>
      <point x="224" y="408"/>
      <point x="262" y="447"/>
      <point x="328" y="447" type="curve" smooth="yes"/>
      <point x="393" y="447"/>
      <point x="418" y="410"/>
      <point x="407" y="342" type="curve" smooth="yes"/>
    </contour>
  </outline>
</glyph>
<glyph name="k" format="2">
  <advance width="600"/>
  <unicode hex="006B"/>
  <anchor x="300" y="0" name="bottom"/>
  <anchor x="300" y="730" name="top"/>
  <outline>
    <contour>
      <point x="69" y="0" type="line"/>
      <point x="219" y="0" type="line"/>
      <point x="219" y="216" type="line"/>
      <point x="294" y="216" type="line"/>
      <point x="410" y="0" type="line"/>
      <point x="578" y="0" type="line"/>
      <point x="422" y="281" type="line"/>
      <point x="575" y="550" type="line"/>
      <point x="410" y="550" type="line"/>
      <point x="295" y="342" type="line"/>
      <point x="219" y="342" type="line"/>
      <point x="219" y="730" type="line"/>
      <point x="69" y="730" type="line"/>
    </contour>
  </outline>
</glyph>
<glyph name="v" format="2">
  <advance width="600"/>
  <unicode hex="0076"/>
  <anchor x="256" y="0" name="bottom"/>
  <anchor x="344" y="550" name="top"/>
  <outline>
    <contour>
      <point x="163" y="0" type="line"/>
      <point x="351" y="0" type="line"/>
      <point x="616" y="550" type="line"/>
      <point x="460" y="550" type="line"/>
      <point x="320" y="240" type="line" smooth="yes"/>
      <point x="304" y="204"/>
      <point x="287" y="154"/>
      <point x="277" y="127" type="curve"/>
      <point x="275" y="154"/>
      <point x="270" y="204"/>
      <point x="265" y="241" type="curve" smooth="yes"/>
      <point x="222" y="550" type="line"/>
      <point x="70" y="550" type="line"/>
    </contour>
  </outline>
</glyph>
<glyph name="w" format="2">
  <advance width="600"/>
  <unicode hex="0077"/>
  <anchor x="300" y="0" name="bottom"/>
  <anchor x="300" y="550" name="top"/>
  <outline>
    <contour>
      <point x="90" y="0" type="line"/>
      <point x="241" y="0" type="line"/>
      <point x="283" y="310" type="line" smooth="yes"/>
      <point x="288" y="347"/>
      <point x="294" y="407"/>
      <point x="298" y="442" type="curve"/>
      <point x="303" y="442" type="line"/>
      <point x="306" y="407"/>
      <point x="313" y="347"/>
      <point x="318" y="310" type="curve" smooth="yes"/>
      <point x="359" y="0" type="line"/>
      <point x="509" y="0" type="line"/>
      <point x="590" y="550" type="line"/>
      <point x="478" y="550" type="line"/>
      <point x="436" y="250" type="line" smooth="yes"/>
      <point x="430" y="204"/>
      <point x="427" y="142"/>
      <point x="424" y="105" type="curve"/>
      <point x="418" y="105" type="line"/>
      <point x="414" y="141"/>
      <point x="409" y="205"/>
      <point x="402" y="250" type="curve" smooth="yes"/>
      <point x="358" y="550" type="line"/>
      <point x="244" y="550" type="line"/>
      <point x="198" y="250" type="line" smooth="yes"/>
      <point x="191" y="203"/>
      <point x="186" y="143"/>
      <point x="182" y="106" type="curve"/>
      <point x="176" y="106" type="line"/>
      <point x="173" y="142"/>
      <point x="171" y="206"/>
      <point x="165" y="250" type="curve" smooth="yes"/>
      <point x="125" y="550" type="line"/>
      <point x="10" y="550" type="line"/>
    </contour>
  </outline>
</glyph>
<glyph name="x" format="2">
  <advance width="600"/>
  <unicode hex="0078"/>
  <anchor x="256" y="0" name="bottom"/>
  <anchor x="344" y="550" name="top"/>
  <outline>
    <contour>
      <point x="-18" y="0" type="line"/>
      <point x="153" y="0" type="line"/>
      <point x="255" y="130" type="line" smooth="yes"/>
      <point x="269" y="147"/>
      <point x="281" y="172"/>
      <point x="288" y="185" type="curve"/>
      <point x="291" y="172"/>
      <point x="300" y="148"/>
      <point x="308" y="130" type="curve" smooth="yes"/>
      <point x="367" y="0" type="line"/>
      <point x="530" y="0" type="line"/>
      <point x="386" y="282" type="line"/>
      <point x="604" y="550" type="line"/>
      <point x="433" y="550" type="line"/>
      <point x="348" y="440" type="line" smooth="yes"/>
      <point x="334" y="422"/>
      <point x="321" y="398"/>
      <point x="314" y="385" type="curve"/>
      <point x="311" y="398"/>
      <point x="304" y="422"/>
      <point x="296" y="440" type="curve" smooth="yes"/>
      <point x="245" y="550" type="line"/>
      <point x="82" y="550" type="line"/>
      <point x="217" y="288" type="line"/>
    </contour>
  </outline>
</glyph>
<glyph name="y" format="2">
  <advance width="600"/>
  <unicode hex="0079"/>
  <anchor x="256" y="0" name="bottom"/>
  <anchor x="343" y="550" name="top"/>
  <outline>
    <contour>
      <point x="67" y="-180" type="line"/>
      <point x="227" y="-180" type="line" smooth="yes"/>
      <point x="368" y="-180"/>
      <point x="468" y="-106"/>
      <point x="487" y="14" type="curve" smooth="yes"/>
      <point x="570" y="550" type="line"/>
      <point x="420" y="550" type="line"/>
      <point x="374" y="260" type="line" smooth="yes"/>
      <point x="365" y="203"/>
      <point x="329" y="170"/>
      <point x="276" y="170" type="curve" smooth="yes"/>
      <point x="222" y="170"/>
      <point x="195" y="203"/>
      <point x="204" y="260" type="curve" smooth="yes"/>
      <point x="250" y="550" type="line"/>
      <point x="100" y="550" type="line"/>
      <point x="52" y="245" type="line" smooth="yes"/>
      <point x="32" y="121"/>
      <point x="89" y="40"/>
      <point x="196" y="40" type="curve" smooth="yes"/>
      <point x="287" y="40"/>
      <point x="353" y="97"/>
      <point x="368" y="190" type="curve"/>
      <point x="319" y="155" type="line"/>
      <point x="363" y="155" type="line"/>
      <point x="344" y="40" type="line"/>
      <point x="341" y="19" type="line" smooth="yes"/>
      <point x="334" y="-31"/>
      <point x="297" y="-60"/>
      <point x="241" y="-60" type="curve" smooth="yes"/>
      <point x="86" y="-60" type="line"/>
    </contour>
  </outline>
</glyph>
<glyph name="twosuperior" format="2">
  <advance width="600"/>
  <unicode hex="00B2"/>
  <outline>
    <contour>
      <point x="173" y="405" type="line"/>
      <point x="488" y="405" type="line"/>
      <point x="501" y="488" type="line"/>
      <point x="300" y="488" type="line"/>
      <point x="418" y="553" type="line" smooth="yes"/>
      <point x="482" y="588"/>
      <point x="519" y="635"/>
      <point x="528" y="695" type="curve" smooth="yes"/>
      <point x="542" y="783"/>
      <point x="488" y="840"/>
      <point x="391" y="840" type="curve" smooth="yes"/>
      <point x="294" y="840"/>
      <point x="222" y="783"/>
      <point x="208" y="694" type="curve"/>
      <point x="303" y="694" type="line"/>
      <point x="309" y="733"/>
      <point x="339" y="758"/>
      <point x="378" y="758" type="curve" smooth="yes"/>
      <point x="417" y="758"/>
      <point x="439" y="733"/>
      <point x="433" y="694" type="curve" smooth="yes"/>
      <point x="428" y="665"/>
      <point x="408" y="635"/>
      <point x="381" y="619" type="curve" smooth="yes"/>
      <point x="189" y="502" type="line"/>
    </contour>
  </outline>
</glyph>
<glyph name="threesuperior" format="2">
  <advance width="600"/>
  <unicode hex="00B3"/>
  <outline>
    <contour>
      <point x="303" y="395" type="curve" smooth="yes"/>
      <point x="399" y="395"/>
      <point x="472" y="451"/>
      <point x="487" y="542" type="curve" smooth="yes"/>
      <point x="500" y="622"/>
      <point x="451" y="674"/>
      <point x="368" y="674" type="curve"/>
      <point x="362" y="635" type="line"/>
      <point x="490" y="741" type="line"/>
      <point x="504" y="830" type="line"/>
      <point x="240" y="830" type="line"/>
      <point x="227" y="747" type="line"/>
      <point x="404" y="747" type="line"/>
      <point x="318" y="675" type="line"/>
      <point x="307" y="609" type="line"/>
      <point x="337" y="609" type="line" smooth="yes"/>
      <point x="377" y="609"/>
      <point x="398" y="584"/>
      <point x="392" y="542" type="curve" smooth="yes"/>
      <point x="385" y="498"/>
      <point x="357" y="477"/>
      <point x="316" y="477" type="curve" smooth="yes"/>
      <point x="274" y="477"/>
      <point x="250" y="498"/>
      <point x="257" y="540" type="curve"/>
      <point x="162" y="540" type="line"/>
      <point x="147" y="451"/>
      <point x="205" y="395"/>
    </contour>
  </outline>
</glyph>
<glyph name="onehalf" format="2">
  <advance width="600"/>
  <unicode hex="00BD"/>
  <outline>
    <contour>
      <point x="310" y="0" type="line"/>
      <point x="585" y="0" type="line"/>
      <point x="585" y="75" type="line"/>
      <point x="485" y="75" type="line" smooth="yes"/>
      <point x="467" y="75"/>
      <point x="440" y="72"/>
      <point x="425" y="70" type="curve"/>
      <point x="425" y="79" type="line"/>
      <point x="483" y="110" type="line" smooth="yes"/>
      <point x="549" y="145"/>
      <point x="580" y="180"/>
      <point x="580" y="227" type="curve" smooth="yes"/>
      <point x="580" y="289"/>
      <point x="527" y="330"/>
      <point x="448" y="330" type="curve" smooth="yes"/>
      <point x="367" y="330"/>
      <point x="310" y="283"/>
      <point x="310" y="216" type="curve"/>
      <point x="400" y="216" type="line"/>
      <point x="400" y="242"/>
      <point x="419" y="260"/>
      <point x="448" y="260" type="curve" smooth="yes"/>
      <point x="473" y="260"/>
      <point x="490" y="244"/>
      <point x="490" y="219" type="curve" smooth="yes"/>
      <point x="490" y="199"/>
      <point x="479" y="184"/>
      <point x="453" y="169" type="curve" smooth="yes"/>
      <point x="310" y="89" type="line"/>
    </contour>
    <contour>
      <point x="37" y="405" type="line"/>
      <point x="331" y="405" type="line"/>
      <point x="331" y="480" type="line"/>
      <point x="241" y="480" type="line"/>
      <point x="241" y="730" type="line"/>
      <point x="126" y="730" type="line"/>
      <point x="51" y="676" type="line"/>
      <point x="51" y="578" type="line"/>
      <point x="112" y="625" type="line" smooth="yes"/>
      <point x="127" y="637"/>
      <point x="143" y="656"/>
      <point x="151" y="668" type="curve"/>
      <point x="151" y="480" type="line"/>
      <point x="37" y="480" type="line"/>
    </contour>
    <component base="fraction"/>
  </outline>
</glyph>
<glyph name="Ccedilla" format="2">
  <advance width="600"/>
  <unicode hex="00C7"/>
  <anchor x="305" y="0" name="_bottom"/>
  <anchor x="305" y="0" name="bottom"/>
  <anchor x="305" y="730" name="top"/>
  <outline>
    <contour>
      <point x="200" y="-225" type="line"/>
      <point x="310" y="-225" type="line" smooth="yes"/>
      <point x="394" y="-225"/>
      <point x="450" y="-182"/>
      <point x="450" y="-133" type="curve" smooth="yes"/>
      <point x="450" y="-72"/>
      <point x="369" y="-43"/>
      <point x="308" y="-39" type="curve"/>
      <point x="327" y="16" type="line"/>
      <point x="254" y="16" type="line"/>
      <point x="219" y="-69" type="line"/>
      <point x="292" y="-69"/>
      <point x="335" y="-88"/>
      <point x="335" y="-119" type="curve" smooth="yes"/>
      <point x="335" y="-135"/>
      <point x="313" y="-155"/>
      <point x="280" y="-155" type="curve" smooth="yes"/>
      <point x="200" y="-155" type="line"/>
    </contour>
    <component base="C"/>
  </outline>
</glyph>
<glyph name="Oslash" format="2">
  <advance width="600"/>
  <unicode hex="00D8"/>
  <anchor x="256" y="0" name="bottom"/>
  <anchor x="392" y="730" name="horn"/>
  <anchor x="372" y="730" name="top"/>
  <outline>
    <contour>
      <point x="-35" y="-40" type="line"/>
      <point x="83" y="-40" type="line"/>
      <point x="660" y="750" type="line"/>
      <point x="542" y="750" type="line"/>
    </contour>
    <contour>
      <point x="254" y="-10" type="curve" smooth="yes"/>
      <point x="401" y="-10"/>
      <point x="508" y="78"/>
      <point x="529" y="210" type="curve" smooth="yes"/>
      <point x="578" y="520" type="line" smooth="yes"/>
      <point x="599" y="652"/>
      <point x="520" y="740"/>
      <point x="373" y="740" type="curve" smooth="yes"/>
      <point x="226" y="740"/>
      <point x="119" y="652"/>
      <point x="98" y="520" type="curve" smooth="yes"/>
      <point x="49" y="210" type="line" smooth="yes"/>
      <point x="28" y="78"/>
      <point x="107" y="-10"/>
    </contour>
    <contour>
      <point x="275" y="120" type="curve" smooth="yes"/>
      <point x="214" y="120"/>
      <point x="185" y="152"/>
      <point x="194" y="210" type="curve" smooth="yes"/>
      <point x="243" y="520" type="line" smooth="yes"/>
      <point x="253" y="578"/>
      <point x="292" y="610"/>
      <point x="353" y="610" type="curve" smooth="yes"/>
      <point x="414" y="610"/>
      <point x="443" y="578"/>
      <point x="433" y="520" type="curve" smooth="yes"/>
      <point x="384" y="210" type="line" smooth="yes"/>
      <point x="375" y="152"/>
      <point x="336" y="120"/>
    </contour>
  </outline>
</glyph>
<glyph name="germandbls" format="2">
  <advance width="600"/>
  <unicode hex="00DF"/>
  <outline>
    <contour>
      <point x="-132" y="-180" type="line"/>
      <point x="-107" y="-180" type="line" smooth="yes"/>
      <point x="34" y="-180"/>
      <point x="134" y="-106"/>
      <point x="153" y="14" type="curve" smooth="yes"/>
      <point x="233" y="516" type="line" smooth="yes"/>
      <point x="243" y="577"/>
      <point x="287" y="615"/>
      <point x="348" y="615" type="curve" smooth="yes"/>
      <point x="410" y="615"/>
      <point x="443" y="577"/>
      <point x="434" y="517" type="curve" smooth="yes"/>
      <point x="425" y="462"/>
      <point x="385" y="428"/>
      <point x="329" y="428" type="curve" smooth="yes"/>
      <point x="284" y="428" type="line"/>
      <point x="266" y="318" type="line"/>
      <point x="313" y="318" type="line" smooth="yes"/>
      <point x="376" y="318"/>
      <point x="410" y="281"/>
      <point x="400" y="221" type="curve" smooth="yes"/>
      <point x="390" y="161"/>
      <point x="347" y="125"/>
      <point x="283" y="125" type="curve" smooth="yes"/>
      <point x="236" y="125" type="line"/>
      <point x="216" y="0" type="line"/>
      <point x="268" y="0" type="line" smooth="yes"/>
      <point x="417" y="0"/>
      <point x="529" y="84"/>
      <point x="549" y="209" type="curve" smooth="yes"/>
      <point x="567" y="322"/>
      <point x="494" y="397"/>
      <point x="369" y="395" type="curve"/>
      <point x="366" y="380" type="line"/>
      <point x="491" y="380"/>
      <point x="573" y="440"/>
      <point x="589" y="545" type="curve" smooth="yes"/>
      <point x="608" y="662"/>
      <point x="520" y="740"/>
      <point x="381" y="740" type="curve" smooth="yes"/>
      <point x="227" y="740"/>
      <point x="119" y="650"/>
      <point x="98" y="516" type="curve" smooth="yes"/>
      <point x="19" y="19" type="line" smooth="yes"/>
      <point x="11" y="-29"/>
      <point x="-32" y="-60"/>
      <point x="-93" y="-60" type="curve" smooth="yes"/>
      <point x="-113" y="-60" type="line"/>
    </contour>
  </outline>
</glyph>
<glyph name="aogonek" format="2">
  <advance width="600"/>
  <unicode hex="0105"/>
  <anchor x="261" y="0" name="bottom"/>
  <anchor x="390" y="0" name="ogonek"/>
  <anchor x="348" y="550" name="top"/>
  <outline>
    <contour>
      <point x="402" y="-225" type="curve" smooth="yes"/>
      <point x="510" y="-225" type="line"/>
      <point x="527" y="-120" type="line"/>
      <point x="458" y="-120" type="line" smooth="yes"/>
      <point x="429" y="-120"/>
      <point x="415" y="-103"/>
      <point x="418" y="-83" type="curve" smooth="yes"/>
      <point x="421" y="-66"/>
      <point x="439" y="-42"/>
      <point x="492" y="0" type="curve"/>
      <point x="420" y="11" type="line"/>
      <point x="347" y="-19"/>
      <point x="296" y="-68"/>
      <point x="289" y="-115" type="curve" smooth="yes"/>
      <point x="278" y="-180"/>
      <point x="321" y="-225"/>
    </contour>
    <component base="a"/>
  </outline>
</glyph>
<glyph name="Dcroat" format="2">
  <advance width="600"/>
  <unicode hex="0110"/>
  <anchor x="300" y="0" name="bottom"/>
  <anchor x="300" y="365" name="center"/>
  <anchor x="300" y="730" name="top"/>
  <outline>
    <contour>
      <point x="10" y="325" type="line"/>
      <point x="290" y="325" type="line"/>
      <point x="290" y="420" type="line"/>
      <point x="10" y="420" type="line"/>
    </contour>
    <component base="D"/>
  </outline>
</glyph>
<glyph name="Iogonek" format="2">
  <advance width="600"/>
  <unicode hex="012E"/>
  <anchor x="256" y="0" name="bottom"/>
  <anchor x="280" y="0" name="ogonek"/>
  <anchor x="372" y="730" name="top"/>
  <anchor x="92" y="730" name="topleft"/>
  <outline>
    <contour>
      <point x="216" y="-225" type="curve" smooth="yes"/>
      <point x="324" y="-225" type="line"/>
      <point x="341" y="-120" type="line"/>
      <point x="272" y="-120" type="line" smooth="yes"/>
      <point x="243" y="-120"/>
      <point x="229" y="-103"/>
      <point x="232" y="-83" type="curve" smooth="yes"/>
      <point x="235" y="-66"/>
      <point x="253" y="-42"/>
      <point x="283" y="-18" type="curve" smooth="yes"/>
      <point x="320" y="11" type="line"/>
      <point x="234" y="11" type="line"/>
      <point x="161" y="-19"/>
      <point x="110" y="-68"/>
      <point x="103" y="-115" type="curve" smooth="yes"/>
      <point x="92" y="-180"/>
      <point x="135" y="-225"/>
    </contour>
    <component base="I"/>
  </outline>
</glyph>
<glyph name="iogonek" format="2">
  <advance width="600"/>
  <unicode hex="012F"/>
  <anchor x="320" y="0" name="bottom"/>
  <anchor x="330" y="0" name="ogonek"/>
  <anchor x="320" y="793" name="top"/>
  <outline>
    <contour>
      <point x="316" y="-225" type="curve" smooth="yes"/>
      <point x="424" y="-225" type="line"/>
      <point x="424" y="-120" type="line"/>
      <point x="355" y="-120" type="line" smooth="yes"/>
      <point x="326" y="-120"/>
      <point x="309" y="-103"/>
      <point x="309" y="-83" type="curve" smooth="yes"/>
      <point x="309" y="-66"/>
      <point x="324" y="-42"/>
      <point x="350" y="-18" type="curve" smooth="yes"/>
      <point x="382" y="11" type="line"/>
      <point x="296" y="11" type="line"/>
      <point x="228" y="-19"/>
      <point x="185" y="-68"/>
      <point x="185" y="-115" type="curve" smooth="yes"/>
      <point x="185" y="-180"/>
      <point x="235" y="-225"/>
    </contour>
    <component base="idotless"/>
    <component base="dotaccentcomb" xOffset="620"/>
  </outline>
</glyph>
<glyph name="idotless" format="2">
  <advance width="600"/>
  <unicode hex="0131"/>
  <anchor x="320" y="0" name="bottom"/>
  <anchor x="330" y="0" name="ogonek"/>
  <anchor x="320" y="550" name="top"/>
  <outline>
    <contour>
      <point x="70" y="0" type="line"/>
      <point x="560" y="0" type="line"/>
      <point x="560" y="135" type="line"/>
      <point x="402" y="135" type="line"/>
      <point x="402" y="550" type="line"/>
      <point x="90" y="550" type="line"/>
      <point x="90" y="415" type="line"/>
      <point x="252" y="415" type="line"/>
      <point x="252" y="135" type="line"/>
      <point x="70" y="135" type="line"/>
    </contour>
  </outline>
</glyph>
<glyph name="Scedilla" format="2">
  <advance width="600"/>
  <unicode hex="015E"/>
  <anchor x="300" y="0" name="_bottom"/>
  <anchor x="300" y="0" name="bottom"/>
  <anchor x="300" y="730" name="top"/>
  <outline>
    <contour>
      <point x="195" y="-225" type="line"/>
      <point x="305" y="-225" type="line" smooth="yes"/>
      <point x="389" y="-225"/>
      <point x="445" y="-182"/>
      <point x="445" y="-133" type="curve" smooth="yes"/>
      <point x="445" y="-72"/>
      <point x="364" y="-43"/>
      <point x="303" y="-39" type="curve"/>
      <point x="322" y="16" type="line"/>
      <point x="249" y="16" type="line"/>
      <point x="214" y="-69" type="line"/>
      <point x="287" y="-69"/>
      <point x="330" y="-88"/>
      <point x="330" y="-119" type="curve" smooth="yes"/>
      <point x="330" y="-135"/>
      <point x="308" y="-155"/>
      <point x="275" y="-155" type="curve" smooth="yes"/>
      <point x="195" y="-155" type="line"/>
    </contour>
    <component base="S"/>
  </outline>
</glyph>
<glyph name="Tbar" format="2">
  <advance width="600"/>
  <unicode hex="0166"/>
  <anchor x="300" y="0" name="bottom"/>
  <anchor x="300" y="365" name="center"/>
  <anchor x="300" y="730" name="top"/>
  <outline>
    <contour>
      <point x="100" y="265" type="line"/>
      <point x="500" y="265" type="line"/>
      <point x="500" y="390" type="line"/>
      <point x="100" y="390" type="line"/>
    </contour>
    <component base="T"/>
  </outline>
</glyph>
<glyph name="Uogonek" format="2">
  <advance width="600"/>
  <unicode hex="0172"/>
  <anchor x="457" y="730" name="horn"/>
  <anchor x="372" y="730" name="top"/>
  <outline>
    <contour>
      <point x="274" y="-225" type="curve" smooth="yes"/>
      <point x="382" y="-225" type="line"/>
      <point x="399" y="-120" type="line"/>
      <point x="330" y="-120" type="line" smooth="yes"/>
      <point x="301" y="-120"/>
      <point x="287" y="-103"/>
      <point x="290" y="-82" type="curve" smooth="yes"/>
      <point x="293" y="-65"/>
      <point x="309" y="-38"/>
      <point x="339" y="-17" type="curve" smooth="yes"/>
      <point x="393" y="21" type="line"/>
      <point x="463" y="58"/>
      <point x="516" y="127"/>
      <point x="529" y="210" type="curve" smooth="yes"/>
      <point x="612" y="730" type="line"/>
      <point x="462" y="730" type="line"/>
      <point x="379" y="210" type="line" smooth="yes"/>
      <point x="370" y="152"/>
      <point x="335" y="120"/>
      <point x="275" y="120" type="curve" smooth="yes"/>
      <point x="215" y="120"/>
      <point x="190" y="152"/>
      <point x="199" y="210" type="curve" smooth="yes"/>
      <point x="282" y="730" type="line"/>
      <point x="132" y="730" type="line"/>
      <point x="49" y="210" type="line" smooth="yes"/>
      <point x="28" y="78"/>
      <point x="107" y="-10"/>
      <point x="254" y="-10" type="curve" smooth="yes"/>
      <point x="287" y="-10"/>
      <point x="306" y="11"/>
      <point x="307" y="21" type="curve"/>
      <point x="235" y="-9"/>
      <point x="168" y="-68"/>
      <point x="161" y="-115" type="curve" smooth="yes"/>
      <point x="150" y="-180"/>
      <point x="193" y="-225"/>
    </contour>
  </outline>
</glyph>
<glyph name="lambdastroke" format="2">
  <advance width="600"/>
  <unicode hex="019B"/>
  <outline>
    <contour>
      <point x="115" y="445" type="line"/>
      <point x="525" y="635" type="line"/>
      <point x="542" y="740" type="line"/>
      <point x="132" y="550" type="line"/>
    </contour>
    <component base="lambda"/>
  </outline>
</glyph>
<glyph name="oogonek" format="2">
  <advance width="600"/>
  <unicode hex="01EB"/>
  <anchor x="320" y="550" name="horn"/>
  <anchor x="300" y="550" name="top"/>
  <outline>
    <contour>
      <point x="359" y="-225" type="curve" smooth="yes"/>
      <point x="467" y="-225" type="line"/>
      <point x="467" y="-120" type="line"/>
      <point x="398" y="-120" type="line" smooth="yes"/>
      <point x="369" y="-120"/>
      <point x="352" y="-103"/>
      <point x="352" y="-83" type="curve" smooth="yes"/>
      <point x="352" y="-66"/>
      <point x="366" y="-41"/>
      <point x="393" y="-18" type="curve" smooth="yes"/>
      <point x="449" y="31" type="line"/>
      <point x="503" y="70"/>
      <point x="540" y="135"/>
      <point x="540" y="210" type="curve" smooth="yes"/>
      <point x="540" y="340" type="line" smooth="yes"/>
      <point x="540" y="472"/>
      <point x="447" y="560"/>
      <point x="300" y="560" type="curve" smooth="yes"/>
      <point x="153" y="560"/>
      <point x="60" y="472"/>
      <point x="60" y="340" type="curve" smooth="yes"/>
      <point x="60" y="210" type="line" smooth="yes"/>
      <point x="60" y="78"/>
      <point x="153" y="-10"/>
      <point x="300" y="-10" type="curve" smooth="yes"/>
      <point x="321" y="-10"/>
      <point x="363" y="12"/>
      <point x="363" y="31" type="curve"/>
      <point x="271" y="-19"/>
      <point x="228" y="-68"/>
      <point x="228" y="-115" type="curve" smooth="yes"/>
      <point x="228" y="-180"/>
      <point x="278" y="-225"/>
    </contour>
    <contour>
      <point x="300" y="120" type="curve" smooth="yes"/>
      <point x="242" y="120"/>
      <point x="210" y="152"/>
      <point x="210" y="210" type="curve" smooth="yes"/>
      <point x="210" y="340" type="line" smooth="yes"/>
      <point x="210" y="398"/>
      <point x="242" y="430"/>
      <point x="300" y="430" type="curve" smooth="yes"/>
      <point x="358" y="430"/>
      <point x="390" y="398"/>
      <point x="390" y="340" type="curve" smooth="yes"/>
      <point x="390" y="210" type="line" smooth="yes"/>
      <point x="390" y="152"/>
      <point x="358" y="120"/>
    </contour>
  </outline>
</glyph>
<glyph name="gravecomb" format="2">
  <unicode hex="0300"/>
  <anchor x="-290" y="550" name="_top"/>
  <anchor x="-335" y="785" name="top"/>
  <outline>
    <contour>
      <point x="-353" y="645" type="line"/>
      <point x="-200" y="645" type="line"/>
      <point x="-305" y="785" type="line"/>
      <point x="-470" y="785" type="line"/>
    </contour>
  </outline>
</glyph>
<glyph name="acutecomb" format="2">
  <unicode hex="0301"/>
  <anchor x="-269" y="550" name="_top"/>
  <anchor x="-187" y="785" name="top"/>
  <outline>
    <contour>
      <point x="-345" y="645" type="line"/>
      <point x="-190" y="645" type="line"/>
      <point x="-51" y="785" type="line"/>
      <point x="-218" y="785" type="line"/>
    </contour>
  </outline>
</glyph>
<glyph name="dieresiscomb" format="2">
  <unicode hex="0308"/>
  <anchor x="-300" y="550" name="_top"/>
  <anchor x="-300" y="793" name="top"/>
  <outline>
    <contour>
      <point x="-178" y="637" type="curve" smooth="yes"/>
      <point x="-129" y="637"/>
      <point x="-98" y="667"/>
      <point x="-98" y="715" type="curve" smooth="yes"/>
      <point x="-98" y="763"/>
      <point x="-129" y="793"/>
      <point x="-178" y="793" type="curve" smooth="yes"/>
      <point x="-227" y="793"/>
      <point x="-258" y="763"/>
      <point x="-258" y="715" type="curve" smooth="yes"/>
      <point x="-258" y="667"/>
      <point x="-227" y="637"/>
    </contour>
    <contour>
      <point x="-422" y="637" type="curve" smooth="yes"/>
      <point x="-373" y="637"/>
      <point x="-342" y="667"/>
      <point x="-342" y="715" type="curve" smooth="yes"/>
      <point x="-342" y="763"/>
      <point x="-373" y="793"/>
      <point x="-422" y="793" type="curve" smooth="yes"/>
      <point x="-471" y="793"/>
      <point x="-502" y="763"/>
      <point x="-502" y="715" type="curve" smooth="yes"/>
      <point x="-502" y="667"/>
      <point x="-471" y="637"/>
    </contour>
  </outline>
</glyph>
<glyph name="hookabovecomb" format="2">
  <unicode hex="0309"/>
  <anchor x="-257" y="550" name="_top"/>
  <anchor x="-207" y="834" name="top"/>
  <outline>
    <contour>
      <point x="-305" y="645" type="line"/>
      <point x="-189" y="645" type="line"/>
      <point x="-147" y="687" type="line" smooth="yes"/>
      <point x="-130" y="704"/>
      <point x="-119" y="726"/>
      <point x="-116" y="748" type="curve" smooth="yes"/>
      <point x="-107" y="800"/>
      <point x="-144" y="834"/>
      <point x="-207" y="834" type="curve" smooth="yes"/>
      <point x="-312" y="834" type="line"/>
      <point x="-325" y="749" type="line"/>
      <point x="-251" y="749" type="line" smooth="yes"/>
      <point x="-232" y="749"/>
      <point x="-225" y="745"/>
      <point x="-227" y="732" type="curve" smooth="yes"/>
      <point x="-228" y="724"/>
      <point x="-234" y="716"/>
      <point x="-247" y="703" type="curve" smooth="yes"/>
    </contour>
  </outline>
</glyph>
<glyph name="caroncomb" format="2">
  <unicode hex="030C"/>
  <anchor x="-300" y="550" name="_top"/>
  <anchor x="-300" y="785" name="top"/>
  <outline>
    <contour>
      <point x="-370" y="645" type="line"/>
      <point x="-230" y="645" type="line"/>
      <point x="-95" y="785" type="line"/>
      <point x="-231" y="785" type="line"/>
      <point x="-298" y="715" type="line"/>
      <point x="-370" y="785" type="line"/>
      <point x="-505" y="785" type="line"/>
    </contour>
  </outline>
</glyph>
<glyph name="dblgravecomb" format="2">
  <unicode hex="030F"/>
  <anchor x="-300" y="550" name="_top"/>
  <anchor x="-338" y="785" name="top"/>
  <outline>
    <contour>
      <point x="-322" y="645" type="line"/>
      <point x="-427" y="785" type="line"/>
      <point x="-570" y="785" type="line"/>
      <point x="-455" y="645" type="line"/>
    </contour>
    <contour>
      <point x="-105" y="645" type="line"/>
      <point x="-210" y="785" type="line"/>
      <point x="-353" y="785" type="line"/>
      <point x="-238" y="645" type="line"/>
    </contour>
  </outline>
</glyph>
<glyph name="commaturnedabovecomb" format="2">
  <unicode hex="0312"/>
  <anchor x="-257" y="550" name="_top"/>
  <anchor x="-190" y="880" name="top"/>
  <outline>
    <contour>
      <point x="-62" y="880" type="line"/>
      <point x="-188" y="880" type="line"/>
      <point x="-355" y="645" type="line"/>
      <point x="-179" y="645" type="line"/>
    </contour>
  </outline>
</glyph>
<glyph name="horncomb" format="2">
  <unicode hex="031B"/>
  <anchor x="-300" y="550" name="_horn"/>
  <anchor x="-270" y="550" name="_topright"/>
  <anchor x="-25" y="660" name="topright"/>
  <outline>
    <contour>
      <point x="-250" y="450" type="line"/>
      <point x="-190" y="450" type="line" smooth="yes"/>
      <point x="-103" y="450"/>
      <point x="-45" y="504"/>
      <point x="-45" y="585" type="curve" smooth="yes"/>
      <point x="-45" y="660" type="line"/>
      <point x="-165" y="660" type="line"/>
      <point x="-165" y="585" type="line" smooth="yes"/>
      <point x="-165" y="563"/>
      <point x="-178" y="550"/>
      <point x="-200" y="550" type="curve" smooth="yes"/>
      <point x="-250" y="550" type="line"/>
    </contour>
  </outline>
</glyph>
<glyph name="ringbelowcomb" format="2">
  <unicode hex="0325"/>
  <anchor x="-343" y="0" name="_bottom"/>
  <anchor x="-385" y="-260" name="bottom"/>
  <outline>
    <contour>
      <point x="-384" y="-260" type="curve" smooth="yes"/>
      <point x="-306" y="-260"/>
      <point x="-248" y="-218"/>
      <point x="-238" y="-155" type="curve" smooth="yes"/>
      <point x="-228" y="-92"/>
      <point x="-273" y="-50"/>
      <point x="-351" y="-50" type="curve" smooth="yes"/>
      <point x="-429" y="-50"/>
      <point x="-488" y="-92"/>
      <point x="-498" y="-155" type="curve" smooth="yes"/>
      <point x="-508" y="-218"/>
      <point x="-462" y="-260"/>
    </contour>
    <contour>
      <point x="-377" y="-206" type="curve" smooth="yes"/>
      <point x="-413" y="-206"/>
      <point x="-432" y="-186"/>
      <point x="-428" y="-155" type="curve" smooth="yes"/>
      <point x="-423" y="-124"/>
      <point x="-396" y="-104"/>
      <point x="-360" y="-104" type="curve" smooth="yes"/>
      <point x="-323" y="-104"/>
      <point x="-303" y="-124"/>
      <point x="-308" y="-155" type="curve" smooth="yes"/>
      <point x="-312" y="-186"/>
      <point x="-340" y="-206"/>
    </contour>
  </outline>
</glyph>
<glyph name="commaaccentcomb" format="2">
  <unicode hex="0326"/>
  <anchor x="-344" y="0" name="_bottom"/>
  <anchor x="-384" y="-240" name="bottom"/>
  <outline>
    <contour>
      <point x="-507" y="-240" type="line"/>
      <point x="-377" y="-240" type="line"/>
      <point x="-239" y="-95" type="line"/>
      <point x="-389" y="-95" type="line"/>
    </contour>
  </outline>
</glyph>
<glyph name="cedillacomb" format="2">
  <unicode hex="0327"/>
  <anchor x="-300" y="0" name="_bottom"/>
  <anchor x="-285" y="-225" name="bottom"/>
  <outline>
    <contour>
      <point x="-410" y="-225" type="line"/>
      <point x="-300" y="-225" type="line" smooth="yes"/>
      <point x="-216" y="-225"/>
      <point x="-160" y="-182"/>
      <point x="-160" y="-133" type="curve" smooth="yes"/>
      <point x="-160" y="-72"/>
      <point x="-241" y="-43"/>
      <point x="-302" y="-39" type="curve"/>
      <point x="-283" y="16" type="line"/>
      <point x="-356" y="16" type="line"/>
      <point x="-391" y="-69" type="line"/>
      <point x="-318" y="-69"/>
      <point x="-275" y="-88"/>
      <point x="-275" y="-119" type="curve" smooth="yes"/>
      <point x="-275" y="-135"/>
      <point x="-297" y="-155"/>
      <point x="-330" y="-155" type="curve" smooth="yes"/>
      <point x="-410" y="-155" type="line"/>
    </contour>
  </outline>
</glyph>
<glyph name="slashshortcomb" format="2">
  <unicode hex="0337"/>
  <anchor x="-300" y="280" name="_center"/>
  <outline>
    <contour>
      <point x="-575" y="-30" type="line"/>
      <point x="-460" y="-30" type="line"/>
      <point x="-25" y="590" type="line"/>
      <point x="-140" y="590" type="line"/>
    </contour>
  </outline>
</glyph>
<glyph name="Lambda" format="2">
  <advance width="600"/>
  <unicode hex="039B"/>
  <outline>
    <contour>
      <point x="-19" y="0" type="line"/>
      <point x="137" y="0" type="line"/>
      <point x="307" y="462" type="line" smooth="yes"/>
      <point x="327" y="516"/>
      <point x="350" y="590"/>
      <point x="350" y="590" type="curve"/>
      <point x="350" y="590"/>
      <point x="353" y="516"/>
      <point x="356" y="461" type="curve" smooth="yes"/>
      <point x="381" y="0" type="line"/>
      <point x="531" y="0" type="line"/>
      <point x="466" y="730" type="line"/>
      <point x="276" y="730" type="line"/>
    </contour>
  </outline>
</glyph>
<glyph name="Xi" format="2">
  <advance width="600"/>
  <unicode hex="039E"/>
  <outline>
    <contour>
      <point x="114" y="590" type="line"/>
      <point x="584" y="590" type="line"/>
      <point x="607" y="730" type="line"/>
      <point x="137" y="730" type="line"/>
    </contour>
    <contour>
      <point x="21" y="0" type="line"/>
      <point x="491" y="0" type="line"/>
      <point x="513" y="140" type="line"/>
      <point x="43" y="140" type="line"/>
    </contour>
    <contour>
      <point x="99" y="300" type="line"/>
      <point x="509" y="300" type="line"/>
      <point x="531" y="440" type="line"/>
      <point x="121" y="440" type="line"/>
    </contour>
  </outline>
</glyph>
<glyph name="Sigma" format="2">
  <advance width="600"/>
  <unicode hex="03A3"/>
  <outline>
    <contour>
      <point x="21" y="0" type="line"/>
      <point x="506" y="0" type="line"/>
      <point x="527" y="135" type="line"/>
      <point x="227" y="135" type="line"/>
      <point x="444" y="375" type="line"/>
      <point x="295" y="595" type="line"/>
      <point x="600" y="595" type="line"/>
      <point x="622" y="730" type="line"/>
      <point x="137" y="730" type="line"/>
      <point x="116" y="600" type="line"/>
      <point x="269" y="382" type="line"/>
      <point x="42" y="130" type="line"/>
    </contour>
  </outline>
</glyph>
<glyph name="Psi" format="2">
  <advance width="600"/>
  <unicode hex="03A8"/>
  <outline>
    <contour>
      <point x="240" y="0" type="line"/>
      <point x="360" y="0" type="line"/>
      <point x="360" y="170" type="line"/>
      <point x="487" y="173"/>
      <point x="570" y="260"/>
      <point x="570" y="389" type="curve" smooth="yes"/>
      <point x="570" y="730" type="line"/>
      <point x="443" y="730" type="line"/>
      <point x="443" y="389" type="line" smooth="yes"/>
      <point x="443" y="327"/>
      <point x="407" y="286"/>
      <point x="354" y="286" type="curve"/>
      <point x="354" y="730" type="line"/>
      <point x="246" y="730" type="line"/>
      <point x="246" y="286" type="line"/>
      <point x="193" y="286"/>
      <point x="157" y="327"/>
      <point x="157" y="389" type="curve" smooth="yes"/>
      <point x="157" y="730" type="line"/>
      <point x="30" y="730" type="line"/>
      <point x="30" y="389" type="line" smooth="yes"/>
      <point x="30" y="260"/>
      <point x="113" y="173"/>
      <point x="240" y="170" type="curve"/>
    </contour>
  </outline>
</glyph>
<glyph name="gamma" format="2">
  <advance width="600"/>
  <unicode hex="03B3"/>
  <outline>
    <contour>
      <point x="154" y="-180" type="line"/>
      <point x="304" y="-180" type="line"/>
      <point x="333" y="0" type="line"/>
      <point x="617" y="550" type="line"/>
      <point x="461" y="550" type="line"/>
      <point x="318" y="240" type="line" smooth="yes"/>
      <point x="301" y="204"/>
      <point x="288" y="154"/>
      <point x="279" y="127" type="curve"/>
      <point x="277" y="154"/>
      <point x="277" y="204"/>
      <point x="271" y="241" type="curve" smooth="yes"/>
      <point x="223" y="550" type="line"/>
      <point x="71" y="550" type="line"/>
      <point x="183" y="0" type="line"/>
    </contour>
  </outline>
</glyph>
<glyph name="delta" format="2">
  <advance width="600"/>
  <unicode hex="03B4"/>
  <outline>
    <contour>
      <point x="300" y="-10" type="curve" smooth="yes"/>
      <point x="447" y="-13"/>
      <point x="540" y="75"/>
      <point x="540" y="210" type="curve" smooth="yes"/>
      <point x="540" y="316" type="line" smooth="yes"/>
      <point x="540" y="399"/>
      <point x="510" y="449"/>
      <point x="450" y="492" type="curve" smooth="yes"/>
      <point x="285" y="610" type="line"/>
      <point x="495" y="610" type="line"/>
      <point x="495" y="730" type="line"/>
      <point x="94" y="730" type="line"/>
      <point x="94" y="620" type="line"/>
      <point x="312" y="452" type="line"/>
      <point x="307" y="445" type="line"/>
      <point x="289" y="460"/>
      <point x="252" y="490"/>
      <point x="209" y="490" type="curve" smooth="yes"/>
      <point x="119" y="490"/>
      <point x="60" y="426"/>
      <point x="60" y="310" type="curve" smooth="yes"/>
      <point x="60" y="210" type="line" smooth="yes"/>
      <point x="60" y="75"/>
      <point x="153" y="-7"/>
    </contour>
    <contour>
      <point x="300" y="120" type="curve" smooth="yes"/>
      <point x="243" y="120"/>
      <point x="210" y="153"/>
      <point x="210" y="210" type="curve" smooth="yes"/>
      <point x="210" y="316" type="line" smooth="yes"/>
      <point x="210" y="373"/>
      <point x="243" y="406"/>
      <point x="300" y="406" type="curve" smooth="yes"/>
      <point x="357" y="406"/>
      <point x="390" y="373"/>
      <point x="390" y="316" type="curve" smooth="yes"/>
      <point x="390" y="210" type="line" smooth="yes"/>
      <point x="390" y="153"/>
      <point x="357" y="120"/>
    </contour>
  </outline>
</glyph>
<glyph name="mu" format="2">
  <advance width="600"/>
  <unicode hex="03BC"/>
  <outline>
    <contour>
      <point x="66" y="-180" type="line"/>
      <point x="216" y="-180" type="line"/>
      <point x="216" y="-30" type="line"/>
      <point x="211" y="105" type="line"/>
      <point x="246" y="105" type="line"/>
      <point x="211" y="140" type="line"/>
      <point x="211" y="47"/>
      <point x="246" y="-10"/>
      <point x="303" y="-10" type="curve" smooth="yes"/>
      <point x="360" y="-10"/>
      <point x="395" y="47"/>
      <point x="395" y="140" type="curve"/>
      <point x="360" y="105" type="line"/>
      <point x="395" y="105" type="line"/>
      <point x="390" y="0" type="line"/>
      <point x="540" y="0" type="line"/>
      <point x="540" y="550" type="line"/>
      <point x="390" y="550" type="line"/>
      <point x="390" y="210" type="line" smooth="yes"/>
      <point x="390" y="153"/>
      <point x="358" y="120"/>
      <point x="303" y="120" type="curve" smooth="yes"/>
      <point x="248" y="120"/>
      <point x="216" y="153"/>
      <point x="216" y="210" type="curve" smooth="yes"/>
      <point x="216" y="550" type="line"/>
      <point x="66" y="550" type="line"/>
    </contour>
  </outline>
</glyph>
<glyph name="xi" format="2">
  <advance width="600"/>
  <unicode hex="03BE"/>
  <outline>
    <contour>
      <point x="415" y="-180" type="line"/>
      <point x="565" y="-180" type="line"/>
      <point x="565" y="-34" type="line" smooth="yes"/>
      <point x="565" y="70"/>
      <point x="501" y="135"/>
      <point x="399" y="135" type="curve" smooth="yes"/>
      <point x="318" y="135" type="line" smooth="yes"/>
      <point x="255" y="135"/>
      <point x="215" y="171"/>
      <point x="215" y="228" type="curve" smooth="yes"/>
      <point x="215" y="285"/>
      <point x="255" y="320"/>
      <point x="318" y="320" type="curve" smooth="yes"/>
      <point x="480" y="320" type="line"/>
      <point x="480" y="450" type="line"/>
      <point x="300" y="450" type="line" smooth="yes"/>
      <point x="250" y="450"/>
      <point x="219" y="478"/>
      <point x="219" y="522" type="curve" smooth="yes"/>
      <point x="219" y="567"/>
      <point x="250" y="595"/>
      <point x="300" y="595" type="curve" smooth="yes"/>
      <point x="514" y="595" type="line"/>
      <point x="514" y="730" type="line"/>
      <point x="307" y="730" type="line" smooth="yes"/>
      <point x="166" y="730"/>
      <point x="78" y="661"/>
      <point x="78" y="552" type="curve" smooth="yes"/>
      <point x="78" y="451"/>
      <point x="151" y="388"/>
      <point x="268" y="388" type="curve"/>
      <point x="268" y="404" type="line"/>
      <point x="143" y="404"/>
      <point x="65" y="331"/>
      <point x="65" y="215" type="curve" smooth="yes"/>
      <point x="65" y="83"/>
      <point x="161" y="0"/>
      <point x="313" y="0" type="curve" smooth="yes"/>
      <point x="361" y="0" type="line" smooth="yes"/>
      <point x="394" y="0"/>
      <point x="415" y="-21"/>
      <point x="415" y="-54" type="curve" smooth="yes"/>
    </contour>
  </outline>
</glyph>
<glyph name="sigma" format="2">
  <advance width="600"/>
  <unicode hex="03C3"/>
  <outline>
    <contour>
      <point x="254" y="-10" type="curve" smooth="yes"/>
      <point x="401" y="-10"/>
      <point x="508" y="78"/>
      <point x="529" y="210" type="curve" smooth="yes"/>
      <point x="539" y="270" type="line" smooth="yes"/>
      <point x="554" y="366"/>
      <point x="501" y="427"/>
      <point x="400" y="427" type="curve"/>
      <point x="440" y="385" type="line"/>
      <point x="446" y="425" type="line"/>
      <point x="578" y="425" type="line"/>
      <point x="598" y="550" type="line"/>
      <point x="343" y="550" type="line" smooth="yes"/>
      <point x="196" y="550"/>
      <point x="89" y="462"/>
      <point x="68" y="330" type="curve" smooth="yes"/>
      <point x="49" y="210" type="line" smooth="yes"/>
      <point x="28" y="78"/>
      <point x="107" y="-10"/>
    </contour>
    <contour>
      <point x="275" y="120" type="curve" smooth="yes"/>
      <point x="217" y="120"/>
      <point x="190" y="152"/>
      <point x="199" y="210" type="curve" smooth="yes"/>
      <point x="218" y="330" type="line" smooth="yes"/>
      <point x="227" y="388"/>
      <point x="265" y="420"/>
      <point x="323" y="420" type="curve" smooth="yes"/>
      <point x="381" y="420"/>
      <point x="410" y="402"/>
      <point x="398" y="330" type="curve" smooth="yes"/>
      <point x="379" y="210" type="line" smooth="yes"/>
      <point x="370" y="152"/>
      <point x="333" y="120"/>
    </contour>
  </outline>
</glyph>
<glyph name="Ge-cy" format="2">
  <advance width="600"/>
  <unicode hex="0413"/>
  <anchor x="556" y="0" name="bottomright"/>
  <anchor x="392" y="730" name="top"/>
  <outline>
    <contour>
      <point x="71" y="0" type="line"/>
      <point x="221" y="0" type="line"/>
      <point x="314" y="590" type="line"/>
      <point x="609" y="590" type="line"/>
      <point x="632" y="730" type="line"/>
      <point x="187" y="730" type="line"/>
    </contour>
  </outline>
</glyph>
<glyph name="Zhe-cy" format="2">
  <advance width="600"/>
  <unicode hex="0416"/>
  <outline>
    <contour>
      <point x="-34" y="0" type="line"/>
      <point x="89" y="0" type="line"/>
      <point x="225" y="343" type="line"/>
      <point x="257" y="343" type="line"/>
      <point x="208" y="0" type="line"/>
      <point x="310" y="0" type="line"/>
      <point x="359" y="343" type="line"/>
      <point x="398" y="343" type="line"/>
      <point x="430" y="0" type="line"/>
      <point x="546" y="0" type="line"/>
      <point x="506" y="369" type="line"/>
      <point x="652" y="730" type="line"/>
      <point x="532" y="730" type="line"/>
      <point x="399" y="397" type="line"/>
      <point x="368" y="397" type="line"/>
      <point x="421" y="730" type="line"/>
      <point x="319" y="730" type="line"/>
      <point x="266" y="397" type="line"/>
      <point x="230" y="397" type="line"/>
      <point x="205" y="730" type="line"/>
      <point x="88" y="730" type="line"/>
      <point x="119" y="372" type="line"/>
    </contour>
  </outline>
</glyph>
<glyph name="U-cy" format="2">
  <advance width="600"/>
  <unicode hex="0423"/>
  <anchor x="300" y="730" name="top"/>
  <outline>
    <contour>
      <point x="161" y="0" type="line"/>
      <point x="318" y="0" type="line"/>
      <point x="575" y="730" type="line"/>
      <point x="418" y="730" type="line"/>
      <point x="327" y="433" type="line" smooth="yes"/>
      <point x="318" y="402"/>
      <point x="310" y="354"/>
      <point x="307" y="327" type="curve"/>
      <point x="303" y="354"/>
      <point x="293" y="401"/>
      <point x="283" y="433" type="curve" smooth="yes"/>
      <point x="187" y="730" type="line"/>
      <point x="25" y="730" type="line"/>
      <point x="236" y="185" type="line"/>
    </contour>
  </outline>
</glyph>
<glyph name="Che-cy" format="2">
  <advance width="600"/>
  <unicode hex="0427"/>
  <outline>
    <contour>
      <point x="380" y="0" type="line"/>
      <point x="530" y="0" type="line"/>
      <point x="530" y="730" type="line"/>
      <point x="380" y="730" type="line"/>
      <point x="380" y="410" type="line"/>
      <point x="366" y="404"/>
      <point x="335" y="400"/>
      <point x="305" y="400" type="curve" smooth="yes"/>
      <point x="234" y="400"/>
      <point x="200" y="424"/>
      <point x="200" y="475" type="curve" smooth="yes"/>
      <point x="200" y="730" type="line"/>
      <point x="50" y="730" type="line"/>
      <point x="50" y="466" type="line" smooth="yes"/>
      <point x="50" y="334"/>
      <point x="125" y="265"/>
      <point x="270" y="265" type="curve" smooth="yes"/>
      <point x="315" y="265"/>
      <point x="360" y="270"/>
      <point x="380" y="276" type="curve"/>
    </contour>
  </outline>
</glyph>
<glyph name="be-cy" format="2">
  <advance width="600"/>
  <unicode hex="0431"/>
  <outline>
    <contour>
      <point x="302" y="-10" type="curve" smooth="yes"/>
      <point x="449" y="-13"/>
      <point x="542" y="75"/>
      <point x="542" y="210" type="curve" smooth="yes"/>
      <point x="542" y="279" type="line" smooth="yes"/>
      <point x="542" y="414"/>
      <point x="474" y="494"/>
      <point x="358" y="494" type="curve" smooth="yes"/>
      <point x="264" y="494"/>
      <point x="208" y="446"/>
      <point x="209" y="371" type="curve"/>
      <point x="221" y="385" type="line"/>
      <point x="207" y="385" type="line"/>
      <point x="207" y="455" type="line" smooth="yes"/>
      <point x="207" y="540"/>
      <point x="259" y="587"/>
      <point x="347" y="587" type="curve" smooth="yes"/>
      <point x="512" y="587" type="line"/>
      <point x="512" y="730" type="line"/>
      <point x="347" y="730" type="line" smooth="yes"/>
      <point x="164" y="730"/>
      <point x="62" y="631"/>
      <point x="62" y="455" type="curve" smooth="yes"/>
      <point x="62" y="210" type="line" smooth="yes"/>
      <point x="62" y="75"/>
      <point x="155" y="-7"/>
    </contour>
    <contour>
      <point x="302" y="120" type="curve" smooth="yes"/>
      <point x="244" y="120"/>
      <point x="212" y="152"/>
      <point x="212" y="210" type="curve" smooth="yes"/>
      <point x="212" y="279" type="line" smooth="yes"/>
      <point x="212" y="337"/>
      <point x="244" y="369"/>
      <point x="302" y="369" type="curve" smooth="yes"/>
      <point x="360" y="369"/>
      <point x="392" y="337"/>
      <point x="392" y="279" type="curve" smooth="yes"/>
      <point x="392" y="210" type="line" smooth="yes"/>
      <point x="392" y="152"/>
      <point x="360" y="120"/>
    </contour>
  </outline>
</glyph>
<glyph name="zhe-cy" format="2">
  <advance width="600"/>
  <unicode hex="0436"/>
  <outline>
    <contour>
      <point x="-41" y="0" type="line"/>
      <point x="93" y="0" type="line"/>
      <point x="219" y="255" type="line"/>
      <point x="245" y="255" type="line"/>
      <point x="205" y="0" type="line"/>
      <point x="307" y="0" type="line"/>
      <point x="347" y="255" type="line"/>
      <point x="378" y="255" type="line"/>
      <point x="430" y="0" type="line"/>
      <point x="553" y="0" type="line"/>
      <point x="493" y="282" type="line"/>
      <point x="632" y="550" type="line"/>
      <point x="508" y="550" type="line"/>
      <point x="380" y="305" type="line"/>
      <point x="355" y="305" type="line"/>
      <point x="394" y="550" type="line"/>
      <point x="292" y="550" type="line"/>
      <point x="253" y="305" type="line"/>
      <point x="223" y="305" type="line"/>
      <point x="181" y="550" type="line"/>
      <point x="54" y="550" type="line"/>
      <point x="109" y="285" type="line"/>
    </contour>
  </outline>
</glyph>
<glyph name="ii-cy" format="2">
  <advance width="600"/>
  <unicode hex="0438"/>
  <anchor x="536" y="0" name="bottomright"/>
  <anchor x="344" y="550" name="top"/>
  <outline>
    <contour>
      <point x="196" y="-10" type="curve" smooth="yes"/>
      <point x="287" y="-10"/>
      <point x="353" y="47"/>
      <point x="368" y="140" type="curve"/>
      <point x="319" y="105" type="line"/>
      <point x="363" y="105" type="line"/>
      <point x="346" y="0" type="line"/>
      <point x="491" y="0" type="line"/>
      <point x="578" y="550" type="line"/>
      <point x="428" y="550" type="line"/>
      <point x="374" y="210" type="line" smooth="yes"/>
      <point x="365" y="153"/>
      <point x="329" y="120"/>
      <point x="276" y="120" type="curve" smooth="yes"/>
      <point x="222" y="120"/>
      <point x="195" y="153"/>
      <point x="204" y="210" type="curve" smooth="yes"/>
      <point x="258" y="550" type="line"/>
      <point x="108" y="550" type="line"/>
      <point x="52" y="195" type="line" smooth="yes"/>
      <point x="32" y="71"/>
      <point x="89" y="-10"/>
    </contour>
  </outline>
</glyph>
<glyph name="Gheupturn-cy" format="2">
  <advance width="600"/>
  <unicode hex="0490"/>
  <outline>
    <contour>
      <point x="71" y="0" type="line"/>
      <point x="221" y="0" type="line"/>
      <point x="314" y="590" type="line"/>
      <point x="609" y="590" type="line"/>
      <point x="647" y="825" type="line"/>
      <point x="502" y="825" type="line"/>
      <point x="487" y="730" type="line"/>
      <point x="187" y="730" type="line"/>
    </contour>
  </outline>
</glyph>
<glyph name="Kadescender-cy" format="2">
  <advance width="600"/>
  <unicode hex="049A"/>
  <anchor x="285" y="0" name="bottom"/>
  <anchor x="285" y="730" name="top"/>
  <outline>
    <contour>
      <point x="465" y="-140" type="line"/>
      <point x="595" y="-140" type="line"/>
      <point x="595" y="140" type="line"/>
      <point x="465" y="140" type="line"/>
    </contour>
    <component base="K" xOffset="-15"/>
  </outline>
</glyph>
<glyph name="kadescender-cy" format="2">
  <advance width="600"/>
  <unicode hex="049B"/>
  <outline>
    <contour>
      <point x="22" y="0" type="line"/>
      <point x="172" y="0" type="line"/>
      <point x="206" y="216" type="line"/>
      <point x="284" y="216" type="line"/>
      <point x="366" y="0" type="line"/>
      <point x="416" y="0" type="line"/>
      <point x="394" y="-140" type="line"/>
      <point x="524" y="-140" type="line"/>
      <point x="568" y="140" type="line"/>
      <point x="479" y="140" type="line"/>
      <point x="420" y="275" type="line"/>
      <point x="618" y="550" type="line"/>
      <point x="451" y="550" type="line"/>
      <point x="303" y="342" type="line"/>
      <point x="226" y="342" type="line"/>
      <point x="259" y="550" type="line"/>
      <point x="109" y="550" type="line"/>
    </contour>
  </outline>
</glyph>
<glyph name="chedescender-cy" format="2">
  <advance width="600"/>
  <unicode hex="04B7"/>
  <outline>
    <contour>
      <point x="389" y="-140" type="line"/>
      <point x="519" y="-140" type="line"/>
      <point x="563" y="140" type="line"/>
      <point x="433" y="140" type="line"/>
    </contour>
    <component base="che-cy" xOffset="-10"/>
  </outline>
</glyph>
<glyph name="Schwa-cy" format="2">
  <advance width="600"/>
  <unicode hex="04D8"/>
  <outline>
    <contour>
      <point x="296" y="-10" type="curve" smooth="yes"/>
      <point x="443" y="-10"/>
      <point x="540" y="78"/>
      <point x="540" y="210" type="curve" smooth="yes"/>
      <point x="540" y="520" type="line" smooth="yes"/>
      <point x="540" y="653"/>
      <point x="443" y="740"/>
      <point x="296" y="740" type="curve" smooth="yes"/>
      <point x="149" y="740"/>
      <point x="52" y="653"/>
      <point x="52" y="520" type="curve"/>
      <point x="202" y="520" type="line"/>
      <point x="202" y="578"/>
      <point x="236" y="610"/>
      <point x="296" y="610" type="curve" smooth="yes"/>
      <point x="356" y="610"/>
      <point x="390" y="578"/>
      <point x="390" y="520" type="curve" smooth="yes"/>
      <point x="390" y="435" type="line"/>
      <point x="52" y="435" type="line"/>
      <point x="52" y="210" type="line" smooth="yes"/>
      <point x="52" y="77"/>
      <point x="149" y="-10"/>
    </contour>
    <contour>
      <point x="296" y="120" type="curve" smooth="yes"/>
      <point x="236" y="120"/>
      <point x="202" y="152"/>
      <point x="202" y="210" type="curve" smooth="yes"/>
      <point x="202" y="300" type="line"/>
      <point x="390" y="300" type="line"/>
      <point x="390" y="210" type="line" smooth="yes"/>
      <point x="390" y="152"/>
      <point x="356" y="120"/>
    </contour>
  </outline>
</glyph>
<glyph name="bracketrightwithquill" format="2">
  <advance width="600"/>
  <unicode hex="2046"/>
  <outline>
    <contour>
      <point x="430" y="-110" type="line"/>
      <point x="430" y="830" type="line"/>
      <point x="125" y="830" type="line"/>
      <point x="125" y="690" type="line"/>
      <point x="280" y="690" type="line"/>
      <point x="280" y="445" type="line"/>
      <point x="125" y="445" type="line"/>
      <point x="125" y="305" type="line"/>
      <point x="280" y="305" type="line"/>
      <point x="280" y="30" type="line"/>
      <point x="125" y="30" type="line"/>
      <point x="125" y="-110" type="line"/>
    </contour>
  </outline>
</glyph>
<glyph name="fivesuperior" format="2">
  <advance width="600"/>
  <unicode hex="2075"/>
  <outline>
    <contour>
      <point x="302" y="395" type="curve" smooth="yes"/>
      <point x="400" y="395"/>
      <point x="473" y="452"/>
      <point x="486" y="539" type="curve" smooth="yes"/>
      <point x="500" y="622"/>
      <point x="456" y="675"/>
      <point x="381" y="675" type="curve" smooth="yes"/>
      <point x="325" y="675"/>
      <point x="285" y="644"/>
      <point x="273" y="596" type="curve"/>
      <point x="286" y="596" type="line"/>
      <point x="310" y="745" type="line"/>
      <point x="500" y="745" type="line"/>
      <point x="513" y="830" type="line"/>
      <point x="228" y="830" type="line"/>
      <point x="189" y="582" type="line"/>
      <point x="284" y="582" type="line"/>
      <point x="298" y="597"/>
      <point x="318" y="606"/>
      <point x="339" y="606" type="curve" smooth="yes"/>
      <point x="376" y="606"/>
      <point x="398" y="580"/>
      <point x="391" y="539" type="curve" smooth="yes"/>
      <point x="385" y="498"/>
      <point x="355" y="472"/>
      <point x="314" y="472" type="curve" smooth="yes"/>
      <point x="277" y="472"/>
      <point x="253" y="489"/>
      <point x="254" y="515" type="curve"/>
      <point x="159" y="515" type="line"/>
      <point x="155" y="442"/>
      <point x="212" y="395"/>
    </contour>
  </outline>
</glyph>
<glyph name="eightsuperior" format="2">
  <advance width="600"/>
  <unicode hex="2078"/>
  <outline>
    <contour>
      <point x="300" y="395" type="curve" smooth="yes"/>
      <point x="399" y="395"/>
      <point x="465" y="443"/>
      <point x="465" y="515" type="curve" smooth="yes"/>
      <point x="465" y="560"/>
      <point x="433" y="612"/>
      <point x="360" y="634" type="curve" smooth="yes"/>
      <point x="287" y="656" type="line" smooth="yes"/>
      <point x="254" y="666"/>
      <point x="234" y="692"/>
      <point x="234" y="715" type="curve" smooth="yes"/>
      <point x="234" y="742"/>
      <point x="260" y="762"/>
      <point x="300" y="762" type="curve" smooth="yes"/>
      <point x="339" y="762"/>
      <point x="365" y="742"/>
      <point x="365" y="715" type="curve" smooth="yes"/>
      <point x="365" y="692"/>
      <point x="346" y="666"/>
      <point x="313" y="656" type="curve" smooth="yes"/>
      <point x="240" y="634" type="line" smooth="yes"/>
      <point x="168" y="612"/>
      <point x="135" y="561"/>
      <point x="135" y="515" type="curve" smooth="yes"/>
      <point x="135" y="443"/>
      <point x="201" y="395"/>
    </contour>
    <contour>
      <point x="300" y="473" type="curve" smooth="yes"/>
      <point x="257" y="473"/>
      <point x="229" y="494"/>
      <point x="229" y="524" type="curve" smooth="yes"/>
      <point x="229" y="548"/>
      <point x="250" y="577"/>
      <point x="284" y="588" type="curve" smooth="yes"/>
      <point x="364" y="614" type="line" smooth="yes"/>
      <point x="429" y="635"/>
      <point x="456" y="682"/>
      <point x="456" y="724" type="curve" smooth="yes"/>
      <point x="456" y="793"/>
      <point x="393" y="840"/>
      <point x="300" y="840" type="curve" smooth="yes"/>
      <point x="205" y="840"/>
      <point x="142" y="793"/>
      <point x="142" y="724" type="curve" smooth="yes"/>
      <point x="142" y="682"/>
      <point x="170" y="635"/>
      <point x="236" y="614" type="curve" smooth="yes"/>
      <point x="316" y="588" type="line" smooth="yes"/>
      <point x="350" y="577"/>
      <point x="372" y="548"/>
      <point x="372" y="524" type="curve" smooth="yes"/>
      <point x="372" y="494"/>
      <point x="343" y="473"/>
    </contour>
  </outline>
</glyph>
<glyph name="ninesuperior" format="2">
  <advance width="600"/>
  <unicode hex="2079"/>
  <outline>
    <contour>
      <point x="237" y="405" type="line"/>
      <point x="335" y="405" type="line"/>
      <point x="469" y="567" type="line" smooth="yes"/>
      <point x="501" y="607"/>
      <point x="527" y="658"/>
      <point x="533" y="695" type="curve" smooth="yes"/>
      <point x="547" y="782"/>
      <point x="489" y="840"/>
      <point x="389" y="840" type="curve" smooth="yes"/>
      <point x="288" y="840"/>
      <point x="213" y="782"/>
      <point x="199" y="695" type="curve" smooth="yes"/>
      <point x="186" y="614"/>
      <point x="231" y="560"/>
      <point x="310" y="560" type="curve" smooth="yes"/>
      <point x="346" y="560"/>
      <point x="383" y="581"/>
      <point x="403" y="612" type="curve"/>
      <point x="354" y="592" type="line"/>
      <point x="392" y="592" type="line"/>
    </contour>
    <contour>
      <point x="357" y="632" type="curve" smooth="yes"/>
      <point x="312" y="632"/>
      <point x="286" y="657"/>
      <point x="292" y="695" type="curve" smooth="yes"/>
      <point x="298" y="733"/>
      <point x="332" y="758"/>
      <point x="377" y="758" type="curve" smooth="yes"/>
      <point x="421" y="758"/>
      <point x="446" y="733"/>
      <point x="440" y="695" type="curve" smooth="yes"/>
      <point x="434" y="657"/>
      <point x="401" y="632"/>
    </contour>
  </outline>
</glyph>
<glyph name="plussuperior" format="2">
  <advance width="600"/>
  <unicode hex="207A"/>
  <outline>
    <contour>
      <point x="260" y="305" type="line"/>
      <point x="340" y="305" type="line"/>
      <point x="340" y="410" type="line"/>
      <point x="440" y="410" type="line"/>
      <point x="440" y="480" type="line"/>
      <point x="340" y="480" type="line"/>
      <point x="340" y="585" type="line"/>
      <point x="260" y="585" type="line"/>
      <point x="260" y="480" type="line"/>
      <point x="160" y="480" type="line"/>
      <point x="160" y="410" type="line"/>
      <point x="260" y="410" type="line"/>
    </contour>
  </outline>
</glyph>
<glyph name="emptyset" format="2">
  <advance width="600"/>
  <unicode hex="2205"/>
  <outline>
    <contour>
      <point x="300" y="50" type="curve" smooth="yes"/>
      <point x="477" y="50"/>
      <point x="610" y="183"/>
      <point x="610" y="360" type="curve" smooth="yes"/>
      <point x="610" y="537"/>
      <point x="477" y="670"/>
      <point x="300" y="670" type="curve" smooth="yes"/>
      <point x="123" y="670"/>
      <point x="-10" y="537"/>
      <point x="-10" y="360" type="curve" smooth="yes"/>
      <point x="-10" y="183"/>
      <point x="123" y="50"/>
    </contour>
    <contour>
      <point x="300" y="180" type="curve" smooth="yes"/>
      <point x="203" y="180"/>
      <point x="130" y="257"/>
      <point x="130" y="360" type="curve" smooth="yes"/>
      <point x="130" y="463"/>
      <point x="203" y="540"/>
      <point x="300" y="540" type="curve" smooth="yes"/>
      <point x="397" y="540"/>
      <point x="470" y="463"/>
      <point x="470" y="360" type="curve" smooth="yes"/>
      <point x="470" y="257"/>
      <point x="397" y="180"/>
    </contour>
    <contour>
      <point x="20" y="0" type="line"/>
      <point x="122" y="0" type="line"/>
      <point x="580" y="730" type="line"/>
      <point x="478" y="730" type="line"/>
    </contour>
  </outline>
</glyph>
<glyph name="notelement" format="2">
  <advance width="600"/>
  <unicode hex="2209"/>
  <outline>
    <contour>
      <point x="61" y="-60" type="line"/>
      <point x="152" y="-60" type="line"/>
      <point x="565" y="780" type="line"/>
      <point x="474" y="780" type="line"/>
    </contour>
    <component base="element"/>
  </outline>
</glyph>
<glyph name="radical" format="2">
  <advance width="600"/>
  <unicode hex="221A"/>
  <outline>
    <contour>
      <point x="208" y="0" type="line"/>
      <point x="394" y="0" type="line"/>
      <point x="605" y="730" type="line"/>
      <point x="455" y="730" type="line"/>
      <point x="322" y="218" type="line" smooth="yes"/>
      <point x="313" y="182"/>
      <point x="307" y="135"/>
      <point x="306" y="110" type="curve"/>
      <point x="300" y="110" type="line"/>
      <point x="298" y="135"/>
      <point x="293" y="182"/>
      <point x="284" y="218" type="curve" smooth="yes"/>
      <point x="205" y="550" type="line"/>
      <point x="5" y="550" type="line"/>
      <point x="5" y="415" type="line"/>
      <point x="98" y="415" type="line"/>
    </contour>
  </outline>
</glyph>
<glyph name="divides" format="2">
  <advance width="600"/>
  <unicode hex="2223"/>
  <outline>
    <contour>
      <point x="181" y="0" type="line"/>
      <point x="331" y="0" type="line"/>
      <point x="447" y="730" type="line"/>
      <point x="297" y="730" type="line"/>
    </contour>
  </outline>
</glyph>
<glyph name="union" format="2">
  <advance width="600"/>
  <unicode hex="222A"/>
  <outline>
    <contour>
      <point x="258" y="80" type="curve" smooth="yes"/>
      <point x="280" y="80" type="line" smooth="yes"/>
      <point x="427" y="80"/>
      <point x="539" y="177"/>
      <point x="562" y="323" type="curve" smooth="yes"/>
      <point x="611" y="630" type="line"/>
      <point x="461" y="630" type="line"/>
      <point x="412" y="324" type="line" smooth="yes"/>
      <point x="402" y="260"/>
      <point x="359" y="220"/>
      <point x="301" y="220" type="curve" smooth="yes"/>
      <point x="281" y="220" type="line" smooth="yes"/>
      <point x="223" y="220"/>
      <point x="192" y="260"/>
      <point x="202" y="324" type="curve" smooth="yes"/>
      <point x="251" y="630" type="line"/>
      <point x="101" y="630" type="line"/>
      <point x="52" y="323" type="line" smooth="yes"/>
      <point x="29" y="177"/>
      <point x="111" y="80"/>
    </contour>
  </outline>
</glyph>
<glyph name="excess" format="2">
  <advance width="600"/>
  <unicode hex="2239"/>
  <outline>
    <contour>
      <point x="0" y="260" type="line"/>
      <point x="350" y="260" type="line"/>
      <point x="350" y="400" type="line"/>
      <point x="0" y="400" type="line"/>
    </contour>
    <contour>
      <point x="510" y="93" type="curve" smooth="yes"/>
      <point x="570" y="93"/>
      <point x="610" y="127"/>
      <point x="610" y="180" type="curve" smooth="yes"/>
      <point x="610" y="236"/>
      <point x="570" y="273"/>
      <point x="510" y="273" type="curve" smooth="yes"/>
      <point x="450" y="273"/>
      <point x="410" y="236"/>
      <point x="410" y="180" type="curve" smooth="yes"/>
      <point x="410" y="127"/>
      <point x="450" y="93"/>
    </contour>
    <contour>
      <point x="510" y="387" type="curve" smooth="yes"/>
      <point x="570" y="387"/>
      <point x="610" y="421"/>
      <point x="610" y="474" type="curve" smooth="yes"/>
      <point x="610" y="530"/>
      <point x="570" y="567"/>
      <point x="510" y="567" type="curve" smooth="yes"/>
      <point x="450" y="567"/>
      <point x="410" y="530"/>
      <point x="410" y="474" type="curve" smooth="yes"/>
      <point x="410" y="421"/>
      <point x="450" y="387"/>
    </contour>
  </outline>
</glyph>
<glyph name="notalmostequalto" format="2">
  <advance width="600"/>
  <unicode hex="2249"/>
  <outline>
    <contour>
      <point x="61" y="-60" type="line"/>
      <point x="152" y="-60" type="line"/>
      <point x="565" y="780" type="line"/>
      <point x="474" y="780" type="line"/>
    </contour>
    <component base="asciitilde" xOffset="18" yOffset="110"/>
    <component base="asciitilde" xOffset="-24" yOffset="-155"/>
  </outline>
</glyph>
<glyph name="ringequalto" format="2">
  <advance width="600"/>
  <unicode hex="2257"/>
  <outline>
    <contour>
      <point x="76" y="250" type="line"/>
      <point x="516" y="250" type="line"/>
      <point x="538" y="390" type="line"/>
      <point x="98" y="390" type="line"/>
    </contour>
    <contour>
      <point x="36" y="0" type="line"/>
      <point x="476" y="0" type="line"/>
      <point x="498" y="140" type="line"/>
      <point x="58" y="140" type="line"/>
    </contour>
    <component base="ringcomb" xOffset="582" yOffset="-115"/>
  </outline>
</glyph>
<glyph name="notidentical" format="2">
  <advance width="600"/>
  <unicode hex="2262"/>
  <outline>
    <contour>
      <point x="115" y="-110" type="line"/>
      <point x="206" y="-110" type="line"/>
      <point x="485" y="770" type="line"/>
      <point x="394" y="770" type="line"/>
    </contour>
    <component base="equivalence"/>
  </outline>
</glyph>
<glyph name="muchgreater" format="2">
  <advance width="600"/>
  <unicode hex="226B"/>
  <outline>
    <contour>
      <point x="244" y="48" type="line"/>
      <point x="599" y="267" type="line"/>
      <point x="618" y="390" type="line"/>
      <point x="332" y="608" type="line"/>
      <point x="312" y="490" type="line"/>
      <point x="477" y="367" type="line" smooth="yes"/>
      <point x="495" y="354"/>
      <point x="507" y="344"/>
      <point x="521" y="337" type="curve"/>
      <point x="505" y="330"/>
      <point x="487" y="319"/>
      <point x="467" y="306" type="curve" smooth="yes"/>
      <point x="262" y="175" type="line"/>
    </contour>
    <contour>
      <point x="-36" y="48" type="line"/>
      <point x="319" y="267" type="line"/>
      <point x="338" y="390" type="line"/>
      <point x="53" y="608" type="line"/>
      <point x="34" y="490" type="line"/>
      <point x="197" y="367" type="line" smooth="yes"/>
      <point x="215" y="354"/>
      <point x="227" y="344"/>
      <point x="241" y="337" type="curve"/>
      <point x="225" y="330"/>
      <point x="207" y="319"/>
      <point x="187" y="306" type="curve" smooth="yes"/>
      <point x="-16" y="175" type="line"/>
    </contour>
  </outline>
</glyph>
<glyph name="notless" format="2">
  <advance width="600"/>
  <unicode hex="226E"/>
  <outline>
    <contour>
      <point x="57" y="-69" type="line"/>
      <point x="148" y="-69" type="line"/>
      <point x="550" y="730" type="line"/>
      <point x="459" y="730" type="line"/>
    </contour>
    <component base="less"/>
  </outline>
</glyph>
<glyph name="notgreater" format="2">
  <advance width="600"/>
  <unicode hex="226F"/>
  <outline>
    <contour>
      <point x="57" y="-69" type="line"/>
      <point x="148" y="-69" type="line"/>
      <point x="550" y="730" type="line"/>
      <point x="459" y="730" type="line"/>
    </contour>
    <component base="greater"/>
  </outline>
</glyph>
<glyph name="notlessnorequal" format="2">
  <advance width="600"/>
  <unicode hex="2270"/>
  <outline>
    <contour>
      <point x="26" y="0" type="line"/>
      <point x="486" y="0" type="line"/>
      <point x="508" y="140" type="line"/>
      <point x="48" y="140" type="line"/>
    </contour>
    <contour>
      <point x="61" y="-110" type="line"/>
      <point x="152" y="-110" type="line"/>
      <point x="592" y="780" type="line"/>
      <point x="501" y="780" type="line"/>
    </contour>
    <component base="less" xOffset="20" yOffset="125"/>
  </outline>
</glyph>
<glyph name="notgreaternorequal" format="2">
  <advance width="600"/>
  <unicode hex="2271"/>
  <outline>
    <contour>
      <point x="10" y="-110" type="line"/>
      <point x="101" y="-110" type="line"/>
      <point x="541" y="780" type="line"/>
      <point x="450" y="780" type="line"/>
    </contour>
    <contour>
      <point x="27" y="0" type="line"/>
      <point x="487" y="0" type="line"/>
      <point x="509" y="140" type="line"/>
      <point x="49" y="140" type="line"/>
    </contour>
    <component base="greater" xOffset="21" yOffset="126"/>
  </outline>
</glyph>
<glyph name="greaterorequivalent" format="2">
  <advance width="600"/>
  <unicode hex="2273"/>
  <outline>
    <contour>
      <point x="22" y="0" type="line"/>
      <point x="142" y="0" type="line"/>
      <point x="144" y="15" type="line" smooth="yes"/>
      <point x="148" y="41"/>
      <point x="165" y="55"/>
      <point x="191" y="55" type="curve" smooth="yes"/>
      <point x="240" y="55"/>
      <point x="251" y="-5"/>
      <point x="336" y="-5" type="curve" smooth="yes"/>
      <point x="430" y="-5"/>
      <point x="501" y="56"/>
      <point x="516" y="150" type="curve" smooth="yes"/>
      <point x="518" y="165" type="line"/>
      <point x="398" y="165" type="line"/>
      <point x="396" y="150" type="line" smooth="yes"/>
      <point x="391" y="124"/>
      <point x="375" y="110"/>
      <point x="349" y="110" type="curve" smooth="yes"/>
      <point x="300" y="110"/>
      <point x="289" y="170"/>
      <point x="204" y="170" type="curve" smooth="yes"/>
      <point x="110" y="170"/>
      <point x="39" y="109"/>
      <point x="24" y="15" type="curve" smooth="yes"/>
    </contour>
    <component base="greater" xOffset="20" yOffset="125"/>
  </outline>
</glyph>
<glyph name="succeeds" format="2">
  <advance width="600"/>
  <unicode hex="227B"/>
  <outline>
    <contour>
      <point x="35" y="55" type="curve"/>
      <point x="165" y="55" type="line"/>
      <point x="199" y="179"/>
      <point x="340" y="250"/>
      <point x="551" y="250" type="curve"/>
      <point x="576" y="410" type="line"/>
      <point x="367" y="410"/>
      <point x="249" y="479"/>
      <point x="251" y="600" type="curve"/>
      <point x="121" y="600" type="line"/>
      <point x="111" y="436"/>
      <point x="238" y="340"/>
      <point x="470" y="336" type="curve"/>
      <point x="471" y="338" type="line"/>
      <point x="237" y="332"/>
      <point x="78" y="229"/>
    </contour>
  </outline>
</glyph>
<glyph name="neitherasubsetofnorequalto" format="2">
  <advance width="600"/>
  <unicode hex="2288"/>
  <outline>
    <contour>
      <point x="25" y="-110" type="line"/>
      <point x="122" y="-110" type="line"/>
      <point x="615" y="830" type="line"/>
      <point x="518" y="830" type="line"/>
    </contour>
    <component base="reflexsuperset" xScale="-1" yxScale="0.31677" xOffset="512"/>
  </outline>
</glyph>
<glyph name="neitherasupersetofnorequalto" format="2">
  <advance width="600"/>
  <unicode hex="2289"/>
  <outline>
    <contour>
      <point x="25" y="-110" type="line"/>
      <point x="122" y="-110" type="line"/>
      <point x="615" y="830" type="line"/>
      <point x="518" y="830" type="line"/>
    </contour>
    <component base="reflexsuperset"/>
  </outline>
</glyph>
<glyph name="squareoriginaloforequalto" format="2">
  <advance width="600"/>
  <unicode hex="2292"/>
  <outline>
    <contour>
      <point x="10" y="185" type="line"/>
      <point x="560" y="185" type="line"/>
      <point x="641" y="695" type="line"/>
      <point x="91" y="695" type="line"/>
      <point x="69" y="555" type="line"/>
      <point x="469" y="555" type="line"/>
      <point x="432" y="325" type="line"/>
      <point x="32" y="325" type="line"/>
    </contour>
    <contour>
      <point x="-19" y="0" type="line"/>
      <point x="531" y="0" type="line"/>
      <point x="553" y="140" type="line"/>
      <point x="3" y="140" type="line"/>
    </contour>
  </outline>
</glyph>
<glyph name="multiply.circled" format="2">
  <advance width="600"/>
  <unicode hex="2297"/>
  <outline>
    <contour>
      <point x="300" y="20" type="curve" smooth="yes"/>
      <point x="477" y="20"/>
      <point x="610" y="153"/>
      <point x="610" y="330" type="curve" smooth="yes"/>
      <point x="610" y="507"/>
      <point x="477" y="640"/>
      <point x="300" y="640" type="curve" smooth="yes"/>
      <point x="123" y="640"/>
      <point x="-10" y="507"/>
      <point x="-10" y="330" type="curve" smooth="yes"/>
      <point x="-10" y="153"/>
      <point x="123" y="20"/>
    </contour>
    <contour>
      <point x="300" y="70" type="curve" smooth="yes"/>
      <point x="152" y="70"/>
      <point x="40" y="182"/>
      <point x="40" y="330" type="curve" smooth="yes"/>
      <point x="40" y="478"/>
      <point x="152" y="590"/>
      <point x="300" y="590" type="curve" smooth="yes"/>
      <point x="448" y="590"/>
      <point x="560" y="478"/>
      <point x="560" y="330" type="curve" smooth="yes"/>
      <point x="560" y="182"/>
      <point x="448" y="70"/>
    </contour>
    <contour>
      <point x="157" y="82" type="line"/>
      <point x="300" y="226" type="line"/>
      <point x="443" y="82" type="line"/>
      <point x="547" y="184" type="line"/>
      <point x="402" y="328" type="line"/>
      <point x="553" y="478" type="line"/>
      <point x="448" y="579" type="line"/>
      <point x="300" y="431" type="line"/>
      <point x="157" y="574" type="line"/>
      <point x="50" y="475" type="line"/>
      <point x="197" y="328" type="line"/>
      <point x="58" y="189" type="line"/>
    </contour>
  </outline>
</glyph>
<glyph name="asteriskoperator.circled" format="2">
  <advance width="600"/>
  <unicode hex="229B"/>
  <outline>
    <contour>
      <point x="309" y="20" type="curve" smooth="yes"/>
      <point x="486" y="20"/>
      <point x="619" y="153"/>
      <point x="619" y="330" type="curve" smooth="yes"/>
      <point x="619" y="507"/>
      <point x="486" y="640"/>
      <point x="309" y="640" type="curve" smooth="yes"/>
      <point x="132" y="640"/>
      <point x="-1" y="507"/>
      <point x="-1" y="330" type="curve" smooth="yes"/>
      <point x="-1" y="153"/>
      <point x="132" y="20"/>
    </contour>
    <contour>
      <point x="309" y="70" type="curve" smooth="yes"/>
      <point x="161" y="70"/>
      <point x="49" y="182"/>
      <point x="49" y="330" type="curve" smooth="yes"/>
      <point x="49" y="478"/>
      <point x="161" y="590"/>
      <point x="309" y="590" type="curve" smooth="yes"/>
      <point x="457" y="590"/>
      <point x="569" y="478"/>
      <point x="569" y="330" type="curve" smooth="yes"/>
      <point x="569" y="182"/>
      <point x="457" y="70"/>
    </contour>
    <contour>
      <point x="206" y="75" type="line"/>
      <point x="238" y="120" type="line" smooth="yes"/>
      <point x="271" y="167"/>
      <point x="295" y="250"/>
      <point x="306" y="292" type="curve"/>
      <point x="312" y="292" type="line"/>
      <point x="323" y="250"/>
      <point x="347" y="167"/>
      <point x="380" y="120" type="curve" smooth="yes"/>
      <point x="412" y="75" type="line"/>
      <point x="518" y="149" type="line"/>
      <point x="487" y="195" type="line" smooth="yes"/>
      <point x="456" y="241"/>
      <point x="387" y="290"/>
      <point x="351" y="315" type="curve"/>
      <point x="353" y="319" type="line"/>
      <point x="398" y="319"/>
      <point x="478" y="322"/>
      <point x="530" y="341" type="curve" smooth="yes"/>
      <point x="582" y="360" type="line"/>
      <point x="537" y="482" type="line"/>
      <point x="485" y="463" type="line" smooth="yes"/>
      <point x="433" y="444"/>
      <point x="369" y="394"/>
      <point x="335" y="365" type="curve"/>
      <point x="331" y="368" type="line"/>
      <point x="346" y="409"/>
      <point x="374" y="490"/>
      <point x="374" y="548" type="curve" smooth="yes"/>
      <point x="374" y="603" type="line"/>
      <point x="244" y="603" type="line"/>
      <point x="244" y="548" type="line" smooth="yes"/>
      <point x="244" y="490"/>
      <point x="272" y="409"/>
      <point x="287" y="368" type="curve"/>
      <point x="282" y="364" type="line"/>
      <point x="248" y="393"/>
      <point x="184" y="444"/>
      <point x="132" y="463" type="curve" smooth="yes"/>
      <point x="80" y="482" type="line"/>
      <point x="36" y="360" type="line"/>
      <point x="87" y="341" type="line" smooth="yes"/>
      <point x="139" y="322"/>
      <point x="220" y="319"/>
      <point x="265" y="319" type="curve"/>
      <point x="267" y="315" type="line"/>
      <point x="231" y="290"/>
      <point x="164" y="241"/>
      <point x="131" y="194" type="curve" smooth="yes"/>
      <point x="100" y="149" type="line"/>
    </contour>
  </outline>
</glyph>
<glyph name="equals.circled" format="2">
  <advance width="600"/>
  <unicode hex="229C"/>
  <outline>
    <contour>
      <point x="300" y="20" type="curve" smooth="yes"/>
      <point x="477" y="20"/>
      <point x="610" y="153"/>
      <point x="610" y="330" type="curve" smooth="yes"/>
      <point x="610" y="507"/>
      <point x="477" y="640"/>
      <point x="300" y="640" type="curve" smooth="yes"/>
      <point x="123" y="640"/>
      <point x="-10" y="507"/>
      <point x="-10" y="330" type="curve" smooth="yes"/>
      <point x="-10" y="153"/>
      <point x="123" y="20"/>
    </contour>
    <contour>
      <point x="300" y="70" type="curve" smooth="yes"/>
      <point x="152" y="70"/>
      <point x="40" y="182"/>
      <point x="40" y="330" type="curve" smooth="yes"/>
      <point x="40" y="478"/>
      <point x="152" y="590"/>
      <point x="300" y="590" type="curve" smooth="yes"/>
      <point x="448" y="590"/>
      <point x="560" y="478"/>
      <point x="560" y="330" type="curve" smooth="yes"/>
      <point x="560" y="182"/>
      <point x="448" y="70"/>
    </contour>
    <contour>
      <point x="5" y="355" type="line"/>
      <point x="595" y="355" type="line"/>
      <point x="545" y="495" type="line"/>
      <point x="63" y="495" type="line"/>
    </contour>
    <contour>
      <point x="63" y="165" type="line"/>
      <point x="545" y="165" type="line"/>
      <point x="595" y="305" type="line"/>
      <point x="5" y="305" type="line"/>
    </contour>
  </outline>
</glyph>
<glyph name="doublesubset" format="2">
  <advance width="600"/>
  <unicode hex="22D0"/>
  <outline>
    <contour>
      <point x="256" y="60" type="curve" smooth="yes"/>
      <point x="541" y="60" type="line"/>
      <point x="556" y="155" type="line"/>
      <point x="271" y="155" type="line" smooth="yes"/>
      <point x="174" y="155"/>
      <point x="120" y="217"/>
      <point x="136" y="314" type="curve" smooth="yes"/>
      <point x="150" y="406" type="line" smooth="yes"/>
      <point x="166" y="503"/>
      <point x="238" y="565"/>
      <point x="335" y="565" type="curve" smooth="yes"/>
      <point x="620" y="565" type="line"/>
      <point x="636" y="660" type="line"/>
      <point x="351" y="660" type="line" smooth="yes"/>
      <point x="190" y="660"/>
      <point x="70" y="560"/>
      <point x="45" y="406" type="curve" smooth="yes"/>
      <point x="31" y="314" type="line" smooth="yes"/>
      <point x="6" y="160"/>
      <point x="95" y="60"/>
    </contour>
    <contour>
      <point x="292" y="225" type="curve" smooth="yes"/>
      <point x="567" y="225" type="line"/>
      <point x="581" y="315" type="line"/>
      <point x="325" y="315" type="line" smooth="yes"/>
      <point x="310" y="315"/>
      <point x="301" y="325"/>
      <point x="304" y="340" type="curve" smooth="yes"/>
      <point x="310" y="380" type="line" smooth="yes"/>
      <point x="313" y="395"/>
      <point x="324" y="405"/>
      <point x="339" y="405" type="curve" smooth="yes"/>
      <point x="595" y="405" type="line"/>
      <point x="609" y="495" type="line"/>
      <point x="334" y="495" type="line" smooth="yes"/>
      <point x="270" y="495"/>
      <point x="223" y="456"/>
      <point x="214" y="395" type="curve" smooth="yes"/>
      <point x="202" y="325" type="line" smooth="yes"/>
      <point x="193" y="264"/>
      <point x="228" y="225"/>
    </contour>
  </outline>
</glyph>
<glyph name="uprightdiagonalellipsis" format="2">
  <advance width="600"/>
  <unicode hex="22F0"/>
  <outline>
    <contour>
      <point x="528" y="479" type="curve" smooth="yes"/>
      <point x="576" y="479"/>
      <point x="610" y="512"/>
      <point x="610" y="560" type="curve" smooth="yes"/>
      <point x="610" y="608"/>
      <point x="576" y="641"/>
      <point x="528" y="641" type="curve" smooth="yes"/>
      <point x="480" y="641"/>
      <point x="446" y="608"/>
      <point x="446" y="560" type="curve" smooth="yes"/>
      <point x="446" y="512"/>
      <point x="480" y="479"/>
    </contour>
    <contour>
      <point x="300" y="253" type="curve" smooth="yes"/>
      <point x="348" y="253"/>
      <point x="382" y="286"/>
      <point x="382" y="334" type="curve" smooth="yes"/>
      <point x="382" y="382"/>
      <point x="348" y="415"/>
      <point x="300" y="415" type="curve" smooth="yes"/>
      <point x="252" y="415"/>
      <point x="218" y="382"/>
      <point x="218" y="334" type="curve" smooth="yes"/>
      <point x="218" y="286"/>
      <point x="252" y="253"/>
    </contour>
    <contour>
      <point x="72" y="27" type="curve" smooth="yes"/>
      <point x="120" y="27"/>
      <point x="154" y="60"/>
      <point x="154" y="108" type="curve" smooth="yes"/>
      <point x="154" y="156"/>
      <point x="120" y="189"/>
      <point x="72" y="189" type="curve" smooth="yes"/>
      <point x="24" y="189"/>
      <point x="-10" y="156"/>
      <point x="-10" y="108" type="curve" smooth="yes"/>
      <point x="-10" y="60"/>
      <point x="24" y="27"/>
    </contour>
  </outline>
</glyph>
<glyph name="boxVerticalLightAndLeftHeavy" format="2">
  <advance width="600"/>
  <unicode hex="2525"/>
  <outline>
    <contour>
      <point x="250" y="-400" type="line"/>
      <point x="350" y="-400" type="line"/>
      <point x="350" y="1120" type="line"/>
      <point x="250" y="1120" type="line"/>
      <point x="250" y="470" type="line"/>
      <point x="-20" y="470" type="line"/>
      <point x="-20" y="270" type="line"/>
      <point x="250" y="270" type="line"/>
    </contour>
  </outline>
</glyph>
<glyph name="lowerOneEighthBlock" format="2">
  <advance width="600"/>
  <unicode hex="2581"/>
  <outline>
    <contour>
      <point x="0" y="-300" type="line"/>
      <point x="600" y="-300" type="line"/>
      <point x="600" y="-135" type="line"/>
      <point x="0" y="-135" type="line"/>
    </contour>
  </outline>
</glyph>
<glyph name="upperLeftAndUpperRightAndLowerRightBlock" format="2">
  <advance width="600"/>
  <unicode hex="259C"/>
  <outline>
    <contour>
      <point x="300" y="-300" type="line"/>
      <point x="600" y="-300" type="line"/>
      <point x="600" y="1020" type="line"/>
      <point x="-10" y="1020" type="line"/>
      <point x="-10" y="360" type="line"/>
      <point x="300" y="360" type="line"/>
    </contour>
  </outline>
</glyph>
<glyph name="flat-musical" format="2">
  <advance width="600"/>
  <unicode hex="266D"/>
  <outline>
    <contour>
      <point x="105" y="-10" type="line"/>
      <point x="319" y="72" type="line" smooth="yes"/>
      <point x="428" y="114"/>
      <point x="495" y="191"/>
      <point x="495" y="275" type="curve" smooth="yes"/>
      <point x="495" y="340" type="line" smooth="yes"/>
      <point x="495" y="452"/>
      <point x="444" y="525"/>
      <point x="365" y="525" type="curve" smooth="yes"/>
      <point x="300" y="525"/>
      <point x="255" y="476"/>
      <point x="255" y="400" type="curve"/>
      <point x="266" y="427" type="line"/>
      <point x="255" y="427" type="line"/>
      <point x="255" y="730" type="line"/>
      <point x="105" y="730" type="line"/>
    </contour>
    <contour>
      <point x="255" y="177" type="line"/>
      <point x="255" y="340" type="line" smooth="yes"/>
      <point x="255" y="375"/>
      <point x="271" y="395"/>
      <point x="300" y="395" type="curve" smooth="yes"/>
      <point x="329" y="395"/>
      <point x="345" y="375"/>
      <point x="345" y="340" type="curve" smooth="yes"/>
      <point x="345" y="275" type="line" smooth="yes"/>
      <point x="345" y="235"/>
      <point x="318" y="200"/>
      <point x="274" y="184" type="curve" smooth="yes"/>
    </contour>
  </outline>
</glyph>
<glyph name="checkmark" format="2">
  <advance width="600"/>
  <unicode hex="2713"/>
  <outline>
    <contour>
      <point x="16" y="308" type="line"/>
      <point x="249" y="75" type="line"/>
      <point x="580" y="563" type="line"/>
      <point x="463" y="643" type="line"/>
      <point x="230" y="300" type="line"/>
      <point x="118" y="410" type="line"/>
    </contour>
  </outline>
</glyph>
<glyph name="leftsshapedbagdelimiter" format="2">
  <advance width="600"/>
  <unicode hex="27C5"/>
  <outline>
    <contour>
      <point x="107" y="608" type="line"/>
      <point x="255" y="608" type="line"/>
      <point x="255" y="635" type="line"/>
      <point x="255" y="675"/>
      <point x="280" y="700"/>
      <point x="320" y="700" type="curve" smooth="yes"/>
      <point x="360" y="700"/>
      <point x="385" y="675"/>
      <point x="385" y="635" type="curve" smooth="yes"/>
      <point x="385" y="605"/>
      <point x="371" y="567"/>
      <point x="316" y="496" type="curve" smooth="yes"/>
      <point x="189" y="334" type="line" smooth="yes"/>
      <point x="133" y="262"/>
      <point x="89" y="191"/>
      <point x="89" y="98" type="curve" smooth="yes"/>
      <point x="89" y="-23"/>
      <point x="163" y="-110"/>
      <point x="317" y="-110" type="curve" smooth="yes"/>
      <point x="523" y="-110" type="line"/>
      <point x="523" y="30" type="line"/>
      <point x="325" y="30" type="line" smooth="yes"/>
      <point x="268" y="30"/>
      <point x="237" y="63"/>
      <point x="237" y="108" type="curve" smooth="yes"/>
      <point x="237" y="156"/>
      <point x="273" y="203"/>
      <point x="357" y="311" type="curve" smooth="yes"/>
      <point x="451" y="432" type="line" smooth="yes"/>
      <point x="524" y="526"/>
      <point x="533" y="594"/>
      <point x="533" y="635" type="curve" smooth="yes"/>
      <point x="533" y="761"/>
      <point x="448" y="840"/>
      <point x="320" y="840" type="curve" smooth="yes"/>
      <point x="189" y="840"/>
      <point x="107" y="761"/>
      <point x="107" y="635" type="curve"/>
    </contour>
  </outline>
</glyph>
<glyph name="A.half" format="2">
  <advance width="400"/>
  <outline>
    <contour>
      <point x="217" y="206" type="curve" smooth="yes"/>
      <point x="306" y="0" type="line"/>
      <point x="395" y="0" type="line"/>
      <point x="247" y="335" type="line"/>
      <point x="153" y="335" type="line"/>
      <point x="5" y="0" type="line"/>
      <point x="95" y="0" type="line"/>
      <point x="181" y="206" type="line" smooth="yes"/>
      <point x="191" y="231"/>
      <point x="196" y="252"/>
      <point x="199" y="270" type="curve"/>
      <point x="202" y="252"/>
      <point x="206" y="232"/>
    </contour>
    <contour>
      <point x="105" y="134" type="line"/>
      <point x="105" y="60" type="line"/>
      <point x="293" y="60" type="line"/>
      <point x="293" y="134" type="line"/>
    </contour>
  </outline>
</glyph>
<glyph name="C.half" format="2">
  <advance width="400"/>
  <outline>
    <contour>
      <point x="162" y="-5" type="curve" smooth="yes"/>
      <point x="254" y="-5"/>
      <point x="322" y="45"/>
      <point x="353" y="118" type="curve"/>
      <point x="265" y="118" type="line"/>
      <point x="249" y="91"/>
      <point x="214" y="73"/>
      <point x="175" y="73" type="curve" smooth="yes"/>
      <point x="123" y="73"/>
      <point x="91" y="104"/>
      <point x="91" y="151" type="curve" smooth="yes"/>
      <point x="91" y="210"/>
      <point x="139" y="262"/>
      <point x="204" y="262" type="curve" smooth="yes"/>
      <point x="243" y="262"/>
      <point x="274" y="244"/>
      <point x="280" y="217" type="curve"/>
      <point x="368" y="217" type="line"/>
      <point x="361" y="290"/>
      <point x="309" y="340"/>
      <point x="217" y="340" type="curve" smooth="yes"/>
      <point x="96" y="340"/>
      <point x="2" y="252"/>
      <point x="2" y="137" type="curve" smooth="yes"/>
      <point x="2" y="51"/>
      <point x="63" y="-5"/>
    </contour>
  </outline>
</glyph>
<glyph name="E.half" format="2">
  <advance width="400"/>
  <outline>
    <contour>
      <point x="323" y="70" type="line"/>
      <point x="101" y="70" type="line"/>
      <point x="112" y="138" type="line"/>
      <point x="304" y="138" type="line"/>
      <point x="313" y="197" type="line"/>
      <point x="121" y="197" type="line"/>
      <point x="132" y="265" type="line"/>
      <point x="354" y="265" type="line"/>
      <point x="365" y="335" type="line"/>
      <point x="57" y="335" type="line"/>
      <point x="4" y="0" type="line"/>
      <point x="312" y="0" type="line"/>
    </contour>
  </outline>
</glyph>
<glyph name="G.half" format="2">
  <advance width="400"/>
  <outline>
    <contour>
      <point x="162" y="-5" type="curve" smooth="yes"/>
      <point x="263" y="-5"/>
      <point x="351" y="69"/>
      <point x="366" y="167" type="curve" smooth="yes"/>
      <point x="369" y="181" type="line"/>
      <point x="192" y="181" type="line"/>
      <point x="181" y="114" type="line"/>
      <point x="263" y="114" type="line"/>
      <point x="244" y="87"/>
      <point x="209" y="73"/>
      <point x="175" y="73" type="curve" smooth="yes"/>
      <point x="120" y="73"/>
      <point x="84" y="113"/>
      <point x="92" y="167" type="curve" smooth="yes"/>
      <point x="101" y="221"/>
      <point x="149" y="262"/>
      <point x="204" y="262" type="curve" smooth="yes"/>
      <point x="239" y="262"/>
      <point x="272" y="251"/>
      <point x="284" y="234" type="curve"/>
      <point x="372" y="234" type="line"/>
      <point x="361" y="295"/>
      <point x="294" y="340"/>
      <point x="217" y="340" type="curve" smooth="yes"/>
      <point x="111" y="340"/>
      <point x="20" y="266"/>
      <point x="4" y="167" type="curve" smooth="yes"/>
      <point x="-11" y="69"/>
      <point x="56" y="-5"/>
    </contour>
  </outline>
</glyph>
<glyph name="N.half" format="2">
  <advance width="400"/>
  <outline>
    <contour>
      <point x="-9" y="0" type="line"/>
      <point x="76" y="0" type="line"/>
      <point x="94" y="115" type="line" smooth="yes"/>
      <point x="105" y="188"/>
      <point x="103" y="207"/>
      <point x="101" y="258" type="curve"/>
      <point x="213" y="0" type="line"/>
      <point x="321" y="0" type="line"/>
      <point x="374" y="335" type="line"/>
      <point x="289" y="335" type="line"/>
      <point x="272" y="230" type="line" smooth="yes"/>
      <point x="260" y="157"/>
      <point x="262" y="127"/>
      <point x="264" y="77" type="curve"/>
      <point x="153" y="335" type="line"/>
      <point x="44" y="335" type="line"/>
    </contour>
  </outline>
</glyph>
<glyph name="P.half" format="2">
  <advance width="400"/>
  <outline>
    <contour>
      <point x="1" y="0" type="line"/>
      <point x="87" y="0" type="line"/>
      <point x="104" y="107" type="line"/>
      <point x="209" y="107" type="line" smooth="yes"/>
      <point x="294" y="107"/>
      <point x="360" y="153"/>
      <point x="371" y="220" type="curve" smooth="yes"/>
      <point x="382" y="288"/>
      <point x="330" y="335"/>
      <point x="245" y="335" type="curve" smooth="yes"/>
      <point x="54" y="335" type="line"/>
    </contour>
    <contour>
      <point x="115" y="175" type="line"/>
      <point x="129" y="267" type="line"/>
      <point x="236" y="267" type="line" smooth="yes"/>
      <point x="269" y="267"/>
      <point x="288" y="248"/>
      <point x="284" y="220" type="curve" smooth="yes"/>
      <point x="280" y="193"/>
      <point x="254" y="175"/>
      <point x="221" y="175" type="curve" smooth="yes"/>
    </contour>
  </outline>
</glyph>
<glyph name="R.half" format="2">
  <advance width="400"/>
  <outline>
    <contour>
      <point x="45" y="0" type="line"/>
      <point x="131" y="0" type="line"/>
      <point x="131" y="107" type="line"/>
      <point x="236" y="107" type="line" smooth="yes"/>
      <point x="321" y="107"/>
      <point x="380" y="153"/>
      <point x="380" y="220" type="curve" smooth="yes"/>
      <point x="380" y="288"/>
      <point x="321" y="335"/>
      <point x="236" y="335" type="curve" smooth="yes"/>
      <point x="45" y="335" type="line"/>
    </contour>
    <contour>
      <point x="285" y="0" type="line"/>
      <point x="385" y="0" type="line"/>
      <point x="274" y="141" type="line"/>
      <point x="176" y="141" type="line"/>
    </contour>
    <contour>
      <point x="131" y="175" type="line"/>
      <point x="131" y="267" type="line"/>
      <point x="238" y="267" type="line" smooth="yes"/>
      <point x="271" y="267"/>
      <point x="293" y="248"/>
      <point x="293" y="220" type="curve" smooth="yes"/>
      <point x="293" y="193"/>
      <point x="270" y="175"/>
      <point x="237" y="175" type="curve" smooth="yes"/>
    </contour>
  </outline>
</glyph>
<glyph name="V.half" format="2">
  <advance width="400"/>
  <outline>
    <contour>
      <point x="183" y="129" type="curve" smooth="yes"/>
      <point x="94" y="335" type="line"/>
      <point x="5" y="335" type="line"/>
      <point x="153" y="0" type="line"/>
      <point x="247" y="0" type="line"/>
      <point x="395" y="335" type="line"/>
      <point x="305" y="335" type="line"/>
      <point x="219" y="129" type="line" smooth="yes"/>
      <point x="209" y="104"/>
      <point x="204" y="83"/>
      <point x="201" y="65" type="curve"/>
      <point x="198" y="83"/>
      <point x="194" y="103"/>
    </contour>
  </outline>
</glyph>
<glyph name="X.half" format="2">
  <advance width="400"/>
  <outline>
    <contour>
      <point x="20" y="0" type="line"/>
      <point x="120" y="0" type="line"/>
      <point x="186" y="86" type="line" smooth="yes"/>
      <point x="192" y="94"/>
      <point x="195" y="109"/>
      <point x="196" y="122" type="curve"/>
      <point x="197" y="111"/>
      <point x="205" y="95"/>
      <point x="213" y="85" type="curve" smooth="yes"/>
      <point x="278" y="0" type="line"/>
      <point x="380" y="0" type="line"/>
      <point x="246" y="167" type="line"/>
      <point x="380" y="335" type="line"/>
      <point x="280" y="335" type="line"/>
      <point x="216" y="249" type="line" smooth="yes"/>
      <point x="209" y="239"/>
      <point x="206" y="225"/>
      <point x="205" y="214" type="curve"/>
      <point x="203" y="225"/>
      <point x="195" y="240"/>
      <point x="188" y="249" type="curve" smooth="yes"/>
      <point x="122" y="335" type="line"/>
      <point x="21" y="335" type="line"/>
      <point x="155" y="169" type="line"/>
    </contour>
  </outline>
</glyph>
<glyph name="_similiar_tilda" format="2">
  <advance width="600"/>
  <outline>
    <contour>
      <point x="40" y="248" type="line"/>
      <point x="160" y="248" type="line"/>
      <point x="160" y="278" type="line" smooth="yes"/>
      <point x="160" y="303"/>
      <point x="175" y="318"/>
      <point x="200" y="318" type="curve" smooth="yes"/>
      <point x="260" y="318"/>
      <point x="290" y="228"/>
      <point x="405" y="228" type="curve" smooth="yes"/>
      <point x="500" y="228"/>
      <point x="560" y="288"/>
      <point x="560" y="383" type="curve" smooth="yes"/>
      <point x="560" y="413" type="line"/>
      <point x="440" y="413" type="line"/>
      <point x="440" y="383" type="line" smooth="yes"/>
      <point x="440" y="358"/>
      <point x="425" y="343"/>
      <point x="400" y="343" type="curve" smooth="yes"/>
      <point x="340" y="343"/>
      <point x="310" y="433"/>
      <point x="195" y="433" type="curve" smooth="yes"/>
      <point x="100" y="433"/>
      <point x="40" y="373"/>
      <point x="40" y="278" type="curve" smooth="yes"/>
    </contour>
  </outline>
</glyph>
<glyph name="ampersand_ampersand.liga" format="2">
  <advance width="600"/>
  <outline>
    <contour>
      <point x="205" y="-10" type="curve" smooth="yes"/>
      <point x="271" y="-10"/>
      <point x="327" y="11"/>
      <point x="371" y="51" type="curve"/>
      <point x="407" y="0" type="line"/>
      <point x="550" y="0" type="line"/>
      <point x="442" y="155" type="line"/>
      <point x="544" y="360" type="line"/>
      <point x="404" y="360" type="line"/>
      <point x="361" y="271" type="line"/>
      <point x="246" y="436" type="line" smooth="yes"/>
      <point x="215" y="480"/>
      <point x="195" y="518"/>
      <point x="195" y="550" type="curve" smooth="yes"/>
      <point x="195" y="592"/>
      <point x="223" y="620"/>
      <point x="265" y="620" type="curve" smooth="yes"/>
      <point x="307" y="620"/>
      <point x="335" y="592"/>
      <point x="335" y="550" type="curve"/>
      <point x="470" y="550" type="line"/>
      <point x="470" y="664"/>
      <point x="388" y="740"/>
      <point x="265" y="740" type="curve" smooth="yes"/>
      <point x="145" y="740"/>
      <point x="65" y="668"/>
      <point x="65" y="565" type="curve" smooth="yes"/>
      <point x="65" y="507"/>
      <point x="90" y="449"/>
      <point x="132" y="390" type="curve"/>
      <point x="149" y="443" type="line"/>
      <point x="57" y="434"/>
      <point x="4" y="367"/>
      <point x="4" y="265" type="curve" smooth="yes"/>
      <point x="4" y="195" type="line" smooth="yes"/>
      <point x="4" y="66"/>
      <point x="77" y="-10"/>
    </contour>
    <contour>
      <point x="-301" y="110" type="curve" smooth="yes"/>
      <point x="-346" y="110"/>
      <point x="-376" y="140"/>
      <point x="-376" y="195" type="curve" smooth="yes"/>
      <point x="-376" y="265" type="line" smooth="yes"/>
      <point x="-376" y="298"/>
      <point x="-367" y="321"/>
      <point x="-350" y="335" type="curve"/>
      <point x="-220" y="151" type="line"/>
      <point x="-240" y="125"/>
      <point x="-268" y="110"/>
    </contour>
    <contour>
      <point x="-315" y="-10" type="curve" smooth="yes"/>
      <point x="-249" y="-10"/>
      <point x="-193" y="11"/>
      <point x="-149" y="51" type="curve"/>
      <point x="-113" y="0" type="line"/>
      <point x="30" y="0" type="line"/>
      <point x="-274" y="436" type="line" smooth="yes"/>
      <point x="-305" y="480"/>
      <point x="-325" y="518"/>
      <point x="-325" y="550" type="curve" smooth="yes"/>
      <point x="-325" y="592"/>
      <point x="-297" y="620"/>
      <point x="-255" y="620" type="curve" smooth="yes"/>
      <point x="-213" y="620"/>
      <point x="-185" y="592"/>
      <point x="-185" y="550" type="curve"/>
      <point x="-50" y="550" type="line"/>
      <point x="-50" y="664"/>
      <point x="-132" y="740"/>
      <point x="-255" y="740" type="curve" smooth="yes"/>
      <point x="-375" y="740"/>
      <point x="-455" y="668"/>
      <point x="-455" y="565" type="curve" smooth="yes"/>
      <point x="-455" y="507"/>
      <point x="-430" y="449"/>
      <point x="-388" y="390" type="curve"/>
      <point x="-371" y="443" type="line"/>
      <point x="-463" y="434"/>
      <point x="-516" y="367"/>
      <point x="-516" y="265" type="curve" smooth="yes"/>
      <point x="-516" y="195" type="line" smooth="yes"/>
      <point x="-516" y="66"/>
      <point x="-443" y="-10"/>
    </contour>
    <contour>
      <point x="219" y="110" type="curve" smooth="yes"/>
      <point x="174" y="110"/>
      <point x="144" y="140"/>
      <point x="144" y="195" type="curve" smooth="yes"/>
      <point x="144" y="265" type="line" smooth="yes"/>
      <point x="144" y="298"/>
      <point x="153" y="321"/>
      <point x="170" y="335" type="curve"/>
      <point x="300" y="151" type="line"/>
      <point x="280" y="125"/>
      <point x="252" y="110"/>
    </contour>
  </outline>
</glyph>
<glyph name="bar_equal_greater.liga" format="2">
  <advance width="600"/>
  <outline>
    <contour>
      <point x="-1118" y="35" type="line"/>
      <point x="-968" y="35" type="line"/>
      <point x="-953" y="135" type="line"/>
      <point x="183" y="135" type="line"/>
      <point x="90" y="35" type="line"/>
      <point x="271" y="35" type="line"/>
      <point x="538" y="330" type="line"/>
      <point x="365" y="625" type="line"/>
      <point x="194" y="625" type="line"/>
      <point x="252" y="525" type="line"/>
      <point x="-891" y="525" type="line"/>
      <point x="-875" y="625" type="line"/>
      <point x="-1025" y="625" type="line"/>
    </contour>
    <contour>
      <point x="-930" y="275" type="line"/>
      <point x="-913" y="385" type="line"/>
      <point x="335" y="385" type="line"/>
      <point x="364" y="331" type="line"/>
      <point x="312" y="275" type="line"/>
    </contour>
  </outline>
</glyph>
<glyph name="bar_greater.liga" format="2">
  <advance width="600"/>
  <outline>
    <contour>
      <point x="-397" y="-85" type="line"/>
      <point x="-247" y="-85" type="line"/>
      <point x="382" y="258" type="line"/>
      <point x="405" y="402" type="line"/>
      <point x="-115" y="750" type="line"/>
      <point x="-265" y="750" type="line"/>
    </contour>
    <contour>
      <point x="-218" y="88" type="line"/>
      <point x="-138" y="594" type="line"/>
      <point x="204" y="367" type="line" smooth="yes"/>
      <point x="226" y="352"/>
      <point x="251" y="343"/>
      <point x="263" y="340" type="curve"/>
      <point x="251" y="336"/>
      <point x="222" y="325"/>
      <point x="194" y="310" type="curve"/>
    </contour>
  </outline>
</glyph>
<glyph name="brevecomb-cy" format="2">
  <anchor x="-300" y="550" name="_top"/>
  <outline>
    <contour>
      <point x="-300" y="635" type="curve" smooth="yes"/>
      <point x="-189" y="635"/>
      <point x="-115" y="695"/>
      <point x="-115" y="785" type="curve"/>
      <point x="-230" y="785" type="line"/>
      <point x="-230" y="747"/>
      <point x="-258" y="722"/>
      <point x="-300" y="722" type="curve" smooth="yes"/>
      <point x="-341" y="722"/>
      <point x="-370" y="747"/>
      <point x="-370" y="785" type="curve"/>
      <point x="-485" y="785" type="line"/>
      <point x="-485" y="695"/>
      <point x="-410" y="635"/>
    </contour>
  </outline>
</glyph>
<glyph name="brevecomb_acutecomb.case" format="2">
  <anchor x="-228" y="730" name="_top"/>
  <anchor x="-183" y="1020" name="top"/>
  <outline>
    <contour>
      <point x="-274" y="905" type="line"/>
      <point x="-148" y="905" type="line"/>
      <point x="-15" y="1020" type="line"/>
      <point x="-151" y="1020" type="line"/>
    </contour>
    <contour>
      <point x="-256" y="780" type="curve" smooth="yes"/>
      <point x="-185" y="780" type="line" smooth="yes"/>
      <point x="-84" y="780"/>
      <point x="-12" y="832"/>
      <point x="1" y="915" type="curve"/>
      <point x="-94" y="915" type="line"/>
      <point x="-99" y="881"/>
      <point x="-129" y="860"/>
      <point x="-173" y="860" type="curve" smooth="yes"/>
      <point x="-244" y="860" type="line" smooth="yes"/>
      <point x="-289" y="860"/>
      <point x="-310" y="881"/>
      <point x="-305" y="915" type="curve"/>
      <point x="-400" y="915" type="line"/>
      <point x="-413" y="832"/>
      <point x="-357" y="780"/>
    </contour>
  </outline>
</glyph>
<glyph name="brevecomb_tildecomb.case" format="2">
  <anchor x="-300" y="730" name="_top"/>
  <anchor x="-300" y="1020" name="top"/>
  <outline>
    <contour>
      <point x="-343" y="780" type="curve" smooth="yes"/>
      <point x="-255" y="780" type="line" smooth="yes"/>
      <point x="-172" y="780"/>
      <point x="-120" y="820"/>
      <point x="-120" y="890" type="curve"/>
      <point x="-215" y="890" type="line"/>
      <point x="-215" y="872"/>
      <point x="-229" y="860"/>
      <point x="-250" y="860" type="curve" smooth="yes"/>
      <point x="-349" y="860" type="line" smooth="yes"/>
      <point x="-371" y="860"/>
      <point x="-385" y="872"/>
      <point x="-385" y="890" type="curve"/>
      <point x="-480" y="890" type="line"/>
      <point x="-480" y="820"/>
      <point x="-427" y="780"/>
    </contour>
    <contour>
      <point x="-220" y="910" type="curve" smooth="yes"/>
      <point x="-159" y="910"/>
      <point x="-120" y="949"/>
      <point x="-120" y="1010" type="curve" smooth="yes"/>
      <point x="-120" y="1015" type="line"/>
      <point x="-205" y="1015" type="line"/>
      <point x="-205" y="1010" type="line" smooth="yes"/>
      <point x="-205" y="995"/>
      <point x="-215" y="985"/>
      <point x="-230" y="985" type="curve" smooth="yes"/>
      <point x="-270" y="985"/>
      <point x="-305" y="1020"/>
      <point x="-380" y="1020" type="curve" smooth="yes"/>
      <point x="-441" y="1020"/>
      <point x="-480" y="981"/>
      <point x="-480" y="920" type="curve" smooth="yes"/>
      <point x="-480" y="915" type="line"/>
      <point x="-395" y="915" type="line"/>
      <point x="-395" y="920" type="line" smooth="yes"/>
      <point x="-395" y="935"/>
      <point x="-385" y="945"/>
      <point x="-370" y="945" type="curve" smooth="yes"/>
      <point x="-330" y="945"/>
      <point x="-295" y="910"/>
    </contour>
  </outline>
</glyph>
<glyph name="breveinvertedcomb.case" format="2">
  <anchor x="-228" y="730" name="_top"/>
  <anchor x="-193" y="950" name="top"/>
  <outline>
    <contour>
      <point x="-401" y="800" type="curve"/>
      <point x="-288" y="800" type="line"/>
      <point x="-282" y="838"/>
      <point x="-250" y="863"/>
      <point x="-209" y="863" type="curve" smooth="yes"/>
      <point x="-167" y="863"/>
      <point x="-143" y="838"/>
      <point x="-149" y="800" type="curve"/>
      <point x="-32" y="800" type="line"/>
      <point x="-18" y="890"/>
      <point x="-83" y="950"/>
      <point x="-194" y="950" type="curve" smooth="yes"/>
      <point x="-304" y="950"/>
      <point x="-387" y="890"/>
    </contour>
  </outline>
</glyph>
<glyph name="cedillacomb.case" format="2">
  <anchor x="-300" y="0" name="_bottom"/>
  <anchor x="-280" y="-225" name="bottom"/>
  <outline>
    <contour>
      <point x="-405" y="-225" type="line"/>
      <point x="-295" y="-225" type="line" smooth="yes"/>
      <point x="-211" y="-225"/>
      <point x="-155" y="-182"/>
      <point x="-155" y="-133" type="curve" smooth="yes"/>
      <point x="-155" y="-72"/>
      <point x="-236" y="-43"/>
      <point x="-297" y="-39" type="curve"/>
      <point x="-278" y="16" type="line"/>
      <point x="-351" y="16" type="line"/>
      <point x="-386" y="-69" type="line"/>
      <point x="-313" y="-69"/>
      <point x="-270" y="-88"/>
      <point x="-270" y="-119" type="curve" smooth="yes"/>
      <point x="-270" y="-135"/>
      <point x="-292" y="-155"/>
      <point x="-325" y="-155" type="curve" smooth="yes"/>
      <point x="-405" y="-155" type="line"/>
    </contour>
  </outline>
</glyph>
<glyph name="circumflexcomb_tildecomb.case" format="2">
  <anchor x="-300" y="730" name="_top"/>
  <anchor x="-300" y="1020" name="top"/>
  <outline>
    <contour>
      <point x="-220" y="910" type="curve" smooth="yes"/>
      <point x="-159" y="910"/>
      <point x="-120" y="949"/>
      <point x="-120" y="1010" type="curve" smooth="yes"/>
      <point x="-120" y="1015" type="line"/>
      <point x="-205" y="1015" type="line"/>
      <point x="-205" y="1010" type="line" smooth="yes"/>
      <point x="-205" y="995"/>
      <point x="-215" y="985"/>
      <point x="-230" y="985" type="curve" smooth="yes"/>
      <point x="-270" y="985"/>
      <point x="-305" y="1020"/>
      <point x="-380" y="1020" type="curve" smooth="yes"/>
      <point x="-441" y="1020"/>
      <point x="-480" y="981"/>
      <point x="-480" y="920" type="curve" smooth="yes"/>
      <point x="-480" y="915" type="line"/>
      <point x="-395" y="915" type="line"/>
      <point x="-395" y="920" type="line" smooth="yes"/>
      <point x="-395" y="935"/>
      <point x="-385" y="945"/>
      <point x="-370" y="945" type="curve" smooth="yes"/>
      <point x="-330" y="945"/>
      <point x="-295" y="910"/>
    </contour>
    <contour>
      <point x="-505" y="780" type="line"/>
      <point x="-369" y="780" type="line"/>
      <point x="-300" y="855" type="line"/>
      <point x="-231" y="780" type="line"/>
      <point x="-95" y="780" type="line"/>
      <point x="-190" y="884" type="line"/>
      <point x="-410" y="884" type="line"/>
    </contour>
  </outline>
</glyph>
<glyph name="colon.case" format="2">
  <advance width="600"/>
  <outline>
    <contour>
      <point x="329" y="460" type="curve" smooth="yes"/>
      <point x="389" y="460"/>
      <point x="435" y="496"/>
      <point x="443" y="550" type="curve" smooth="yes"/>
      <point x="452" y="604"/>
      <point x="418" y="640"/>
      <point x="358" y="640" type="curve" smooth="yes"/>
      <point x="298" y="640"/>
      <point x="252" y="604"/>
      <point x="243" y="550" type="curve" smooth="yes"/>
      <point x="235" y="496"/>
      <point x="269" y="460"/>
    </contour>
    <contour>
      <point x="267" y="70" type="curve" smooth="yes"/>
      <point x="327" y="70"/>
      <point x="373" y="106"/>
      <point x="382" y="160" type="curve" smooth="yes"/>
      <point x="390" y="214"/>
      <point x="356" y="250"/>
      <point x="296" y="250" type="curve" smooth="yes"/>
      <point x="236" y="250"/>
      <point x="190" y="214"/>
      <point x="182" y="160" type="curve" smooth="yes"/>
      <point x="173" y="106"/>
      <point x="207" y="70"/>
    </contour>
  </outline>
</glyph>
<glyph name="commaturnedabovecomb.case" format="2">
  <anchor x="-300" y="730" name="_top"/>
  <anchor x="-293" y="1020" name="top"/>
  <outline>
    <contour>
      <point x="-175" y="1020" type="line"/>
      <point x="-295" y="1020" type="line"/>
      <point x="-410" y="810" type="line"/>
      <point x="-240" y="810" type="line"/>
    </contour>
  </outline>
</glyph>
<glyph name="dblgravecomb.case" format="2">
  <anchor x="-228" y="730" name="_top"/>
  <anchor x="-231" y="950" name="top"/>
  <outline>
    <contour>
      <point x="-238" y="810" type="line"/>
      <point x="-321" y="950" type="line"/>
      <point x="-461" y="950" type="line"/>
      <point x="-368" y="810" type="line"/>
    </contour>
    <contour>
      <point x="-24" y="810" type="line"/>
      <point x="-107" y="950" type="line"/>
      <point x="-247" y="950" type="line"/>
      <point x="-154" y="810" type="line"/>
    </contour>
  </outline>
</glyph>
<glyph name="dieresiscomb.case" format="2">
  <anchor x="-227" y="730" name="_top"/>
  <anchor x="-192" y="958" name="top"/>
  <outline>
    <contour>
      <point x="-94" y="802" type="curve" smooth="yes"/>
      <point x="-45" y="802"/>
      <point x="-9" y="832"/>
      <point x="-2" y="880" type="curve" smooth="yes"/>
      <point x="6" y="928"/>
      <point x="-20" y="958"/>
      <point x="-69" y="958" type="curve" smooth="yes"/>
      <point x="-118" y="958"/>
      <point x="-154" y="928"/>
      <point x="-162" y="880" type="curve" smooth="yes"/>
      <point x="-169" y="832"/>
      <point x="-143" y="802"/>
    </contour>
    <contour>
      <point x="-338" y="802" type="curve" smooth="yes"/>
      <point x="-289" y="802"/>
      <point x="-253" y="832"/>
      <point x="-246" y="880" type="curve" smooth="yes"/>
      <point x="-238" y="928"/>
      <point x="-264" y="958"/>
      <point x="-313" y="958" type="curve" smooth="yes"/>
      <point x="-362" y="958"/>
      <point x="-398" y="928"/>
      <point x="-406" y="880" type="curve" smooth="yes"/>
      <point x="-413" y="832"/>
      <point x="-387" y="802"/>
    </contour>
  </outline>
</glyph>
<glyph name="dotaccentcomb.case" format="2">
  <anchor x="-300" y="730" name="_top"/>
  <anchor x="-300" y="958" name="top"/>
  <outline>
    <contour>
      <point x="-300" y="802" type="curve" smooth="yes"/>
      <point x="-245" y="802"/>
      <point x="-210" y="832"/>
      <point x="-210" y="880" type="curve" smooth="yes"/>
      <point x="-210" y="928"/>
      <point x="-245" y="958"/>
      <point x="-300" y="958" type="curve" smooth="yes"/>
      <point x="-355" y="958"/>
      <point x="-390" y="928"/>
      <point x="-390" y="880" type="curve" smooth="yes"/>
      <point x="-390" y="832"/>
      <point x="-355" y="802"/>
    </contour>
  </outline>
</glyph>
<glyph name="equal_equal_equal.liga" format="2">
  <advance width="600"/>
  <outline>
    <contour>
      <point x="-1080" y="530" type="line"/>
      <point x="560" y="530" type="line"/>
      <point x="581" y="660" type="line"/>
      <point x="-1059" y="660" type="line"/>
    </contour>
    <contour>
      <point x="-1164" y="0" type="line"/>
      <point x="476" y="0" type="line"/>
      <point x="497" y="130" type="line"/>
      <point x="-1143" y="130" type="line"/>
    </contour>
    <contour>
      <point x="-1122" y="265" type="line"/>
      <point x="518" y="265" type="line"/>
      <point x="539" y="395" type="line"/>
      <point x="-1101" y="395" type="line"/>
    </contour>
  </outline>
</glyph>
<glyph name="equal_equal_greater.liga" format="2">
  <advance width="600"/>
  <outline>
    <contour>
      <point x="90" y="35" type="line"/>
      <point x="271" y="35" type="line"/>
      <point x="538" y="330" type="line"/>
      <point x="365" y="625" type="line"/>
      <point x="193" y="625" type="line"/>
      <point x="251" y="525" type="line"/>
      <point x="-1081" y="525" type="line"/>
      <point x="-1103" y="385" type="line"/>
      <point x="333" y="385" type="line"/>
      <point x="366" y="333" type="line"/>
      <point x="311" y="275" type="line"/>
      <point x="-1120" y="275" type="line"/>
      <point x="-1143" y="135" type="line"/>
      <point x="183" y="135" type="line"/>
    </contour>
  </outline>
</glyph>
<glyph name="equal_greater.liga" format="2">
  <advance width="600"/>
  <outline>
    <contour>
      <point x="90" y="35" type="line"/>
      <point x="271" y="35" type="line"/>
      <point x="538" y="330" type="line"/>
      <point x="365" y="625" type="line"/>
      <point x="193" y="625" type="line"/>
      <point x="251" y="525" type="line"/>
      <point x="-481" y="525" type="line"/>
      <point x="-503" y="385" type="line"/>
      <point x="333" y="385" type="line"/>
      <point x="364" y="332" type="line"/>
      <point x="309" y="275" type="line"/>
      <point x="-520" y="275" type="line"/>
      <point x="-543" y="135" type="line"/>
      <point x="181" y="135" type="line"/>
    </contour>
  </outline>
</glyph>
<glyph name="exclam_equal.liga" format="2">
  <advance width="600"/>
  <outline>
    <contour>
      <point x="-520" y="385" type="line"/>
      <point x="520" y="385" type="line"/>
      <point x="520" y="525" type="line"/>
      <point x="-520" y="525" type="line"/>
    </contour>
    <contour>
      <point x="-520" y="135" type="line"/>
      <point x="520" y="135" type="line"/>
      <point x="520" y="275" type="line"/>
      <point x="-520" y="275" type="line"/>
    </contour>
    <contour>
      <point x="-163" y="0" type="line"/>
      <point x="-71" y="0" type="line"/>
      <point x="174" y="665" type="line"/>
      <point x="82" y="665" type="line"/>
    </contour>
  </outline>
</glyph>
<glyph name="gravecomb.case" format="2">
  <anchor x="-290" y="730" name="_top"/>
  <anchor x="-335" y="950" name="top"/>
  <outline>
    <contour>
      <point x="-353" y="810" type="line"/>
      <point x="-200" y="810" type="line"/>
      <point x="-305" y="950" type="line"/>
      <point x="-470" y="950" type="line"/>
    </contour>
  </outline>
</glyph>
<glyph name="greater_equal.liga" format="2">
  <advance width="600"/>
  <outline>
    <contour>
      <point x="-305" y="150" type="line"/>
      <point x="305" y="351" type="line"/>
      <point x="305" y="498" type="line"/>
      <point x="-305" y="700" type="line"/>
      <point x="-305" y="564" type="line"/>
      <point x="121" y="440" type="line" smooth="yes"/>
      <point x="149" y="432"/>
      <point x="190" y="430"/>
      <point x="212" y="431" type="curve"/>
      <point x="212" y="421" type="line"/>
      <point x="189" y="421"/>
      <point x="149" y="417"/>
      <point x="121" y="409" type="curve" smooth="yes"/>
      <point x="-305" y="287" type="line"/>
    </contour>
    <contour>
      <point x="-305" y="-80" type="line"/>
      <point x="305" y="121" type="line"/>
      <point x="305" y="248" type="line"/>
      <point x="-305" y="47" type="line"/>
    </contour>
  </outline>
</glyph>
<glyph name="greater_equal_greater.liga" format="2">
  <advance width="600"/>
  <outline>
    <contour>
      <point x="-1150" y="35" type="line"/>
      <point x="-969" y="35" type="line"/>
      <point x="-879" y="135" type="line"/>
      <point x="182" y="135" type="line"/>
      <point x="90" y="35" type="line"/>
      <point x="271" y="35" type="line"/>
      <point x="538" y="330" type="line"/>
      <point x="365" y="625" type="line"/>
      <point x="193" y="625" type="line"/>
      <point x="251" y="525" type="line"/>
      <point x="-816" y="525" type="line"/>
      <point x="-875" y="625" type="line"/>
      <point x="-1047" y="625" type="line"/>
      <point x="-882" y="333" type="line"/>
    </contour>
    <contour>
      <point x="-751" y="275" type="line"/>
      <point x="-702" y="330" type="line"/>
      <point x="-734" y="385" type="line"/>
      <point x="333" y="385" type="line"/>
      <point x="363" y="333" type="line"/>
      <point x="309" y="275" type="line"/>
    </contour>
  </outline>
</glyph>
<glyph name="greater_greater_equal.liga" format="2">
  <advance width="600"/>
  <outline>
    <contour>
      <point x="-850" y="35" type="line"/>
      <point x="-669" y="35" type="line"/>
      <point x="-579" y="135" type="line"/>
      <point x="497" y="135" type="line"/>
      <point x="520" y="275" type="line"/>
      <point x="-451" y="275" type="line"/>
      <point x="-402" y="330" type="line"/>
      <point x="-434" y="385" type="line"/>
      <point x="537" y="385" type="line"/>
      <point x="559" y="525" type="line"/>
      <point x="-516" y="525" type="line"/>
      <point x="-575" y="625" type="line"/>
      <point x="-747" y="625" type="line"/>
      <point x="-581" y="333" type="line"/>
    </contour>
    <contour>
      <point x="-1150" y="35" type="line"/>
      <point x="-969" y="35" type="line"/>
      <point x="-702" y="330" type="line"/>
      <point x="-875" y="625" type="line"/>
      <point x="-1047" y="625" type="line"/>
      <point x="-881" y="333" type="line"/>
    </contour>
  </outline>
</glyph>
<glyph name="hookabovecomb.case" format="2">
  <anchor x="-228" y="730" name="_top"/>
  <anchor x="-183" y="985" name="top"/>
  <outline>
    <contour>
      <point x="-281" y="796" type="line"/>
      <point x="-165" y="796" type="line"/>
      <point x="-123" y="838" type="line" smooth="yes"/>
      <point x="-106" y="855"/>
      <point x="-95" y="877"/>
      <point x="-92" y="899" type="curve" smooth="yes"/>
      <point x="-83" y="951"/>
      <point x="-120" y="985"/>
      <point x="-183" y="985" type="curve" smooth="yes"/>
      <point x="-288" y="985" type="line"/>
      <point x="-301" y="900" type="line"/>
      <point x="-227" y="900" type="line" smooth="yes"/>
      <point x="-208" y="900"/>
      <point x="-201" y="896"/>
      <point x="-203" y="883" type="curve" smooth="yes"/>
      <point x="-204" y="875"/>
      <point x="-210" y="867"/>
      <point x="-223" y="854" type="curve" smooth="yes"/>
    </contour>
  </outline>
</glyph>
<glyph name="hyphen_hyphen_hyphen.liga" format="2">
  <advance width="600"/>
  <outline>
    <contour>
      <point x="15" y="260" type="line"/>
      <point x="460" y="260" type="line"/>
      <point x="460" y="400" type="line"/>
      <point x="15" y="400" type="line"/>
    </contour>
    <contour>
      <point x="-1060" y="260" type="line"/>
      <point x="-615" y="260" type="line"/>
      <point x="-615" y="400" type="line"/>
      <point x="-1060" y="400" type="line"/>
    </contour>
    <contour>
      <point x="-520" y="260" type="line"/>
      <point x="-80" y="260" type="line"/>
      <point x="-80" y="400" type="line"/>
      <point x="-520" y="400" type="line"/>
    </contour>
  </outline>
</glyph>
<glyph name="hyphen_less.liga" format="2">
  <advance width="600"/>
  <outline>
    <contour>
      <point x="333" y="35" type="line"/>
      <point x="510" y="35" type="line"/>
      <point x="354" y="246" type="line"/>
      <point x="289" y="331" type="line"/>
      <point x="353" y="415" type="line"/>
      <point x="510" y="625" type="line"/>
      <point x="334" y="625" type="line"/>
      <point x="165" y="400" type="line"/>
      <point x="-520" y="400" type="line"/>
      <point x="-520" y="260" type="line"/>
      <point x="165" y="260" type="line"/>
    </contour>
  </outline>
</glyph>
<glyph name="less_asciitilde.liga" format="2">
  <advance width="600"/>
  <outline>
    <contour>
      <point x="-310" y="35" type="line"/>
      <point x="-133" y="35" type="line"/>
      <point x="-289" y="246" type="line"/>
      <point x="-210" y="267"/>
      <point x="-207" y="335"/>
      <point x="-165" y="335" type="curve" smooth="yes"/>
      <point x="-115" y="335"/>
      <point x="-110" y="215"/>
      <point x="10" y="215" type="curve" smooth="yes"/>
      <point x="130" y="215"/>
      <point x="135" y="335"/>
      <point x="185" y="335" type="curve" smooth="yes"/>
      <point x="235" y="335"/>
      <point x="250" y="215"/>
      <point x="370" y="215" type="curve" smooth="yes"/>
      <point x="455" y="215"/>
      <point x="520" y="268"/>
      <point x="520" y="350" type="curve" smooth="yes"/>
      <point x="520" y="400" type="line"/>
      <point x="400" y="400" type="line"/>
      <point x="400" y="364" type="line" smooth="yes"/>
      <point x="400" y="339"/>
      <point x="387" y="325"/>
      <point x="365" y="325" type="curve" smooth="yes"/>
      <point x="310" y="325"/>
      <point x="305" y="445"/>
      <point x="185" y="445" type="curve" smooth="yes"/>
      <point x="65" y="445"/>
      <point x="60" y="325"/>
      <point x="10" y="325" type="curve" smooth="yes"/>
      <point x="-40" y="325"/>
      <point x="-45" y="445"/>
      <point x="-165" y="445" type="curve" smooth="yes"/>
      <point x="-299" y="445"/>
      <point x="-262" y="304"/>
      <point x="-397" y="366" type="curve"/>
      <point x="-397" y="350" type="line"/>
      <point x="-379" y="296" type="line"/>
      <point x="-133" y="625" type="line"/>
      <point x="-309" y="625" type="line"/>
      <point x="-530" y="330" type="line"/>
    </contour>
  </outline>
</glyph>
<glyph name="less_bar.liga" format="2">
  <advance width="600"/>
  <outline>
    <contour>
      <point x="190" y="-85" type="line"/>
      <point x="340" y="-85" type="line"/>
      <point x="340" y="750" type="line"/>
      <point x="190" y="750" type="line"/>
      <point x="-385" y="402" type="line"/>
      <point x="-385" y="258" type="line"/>
    </contour>
    <contour>
      <point x="190" y="78" type="line"/>
      <point x="-186" y="300" type="line"/>
      <point x="-212" y="315"/>
      <point x="-239" y="326"/>
      <point x="-251" y="330" type="curve"/>
      <point x="-238" y="333"/>
      <point x="-212" y="342"/>
      <point x="-187" y="357" type="curve" smooth="yes"/>
      <point x="190" y="584" type="line"/>
    </contour>
  </outline>
</glyph>
<glyph name="less_bar_greater.liga" format="2">
  <advance width="600"/>
  <outline>
    <contour>
      <point x="-172" y="-85" type="line"/>
      <point x="457" y="258" type="line"/>
      <point x="480" y="402" type="line"/>
      <point x="-40" y="750" type="line"/>
      <point x="-65" y="595" type="line"/>
      <point x="335" y="341" type="line"/>
      <point x="-146" y="89" type="line"/>
    </contour>
    <contour>
      <point x="-542" y="-85" type="line"/>
      <point x="-517" y="76" type="line"/>
      <point x="-918" y="326" type="line"/>
      <point x="-437" y="582" type="line"/>
      <point x="-410" y="750" type="line"/>
      <point x="-1040" y="402" type="line"/>
      <point x="-1063" y="258" type="line"/>
    </contour>
    <contour>
      <point x="-436" y="-110" type="line"/>
      <point x="-286" y="-110" type="line"/>
      <point x="-145" y="780" type="line"/>
      <point x="-295" y="780" type="line"/>
    </contour>
  </outline>
</glyph>
<glyph name="less_dollar.liga" format="2">
  <advance width="600"/>
  <outline>
    <contour>
      <point x="173" y="-140" type="line"/>
      <point x="238" y="-140" type="line"/>
      <point x="259" y="-9" type="line"/>
      <point x="396" y="2"/>
      <point x="497" y="86"/>
      <point x="516" y="206" type="curve" smooth="yes"/>
      <point x="533" y="317"/>
      <point x="472" y="400"/>
      <point x="353" y="429" type="curve" smooth="yes"/>
      <point x="328" y="435" type="line"/>
      <point x="356" y="606" type="line"/>
      <point x="394" y="597"/>
      <point x="412" y="572"/>
      <point x="406" y="535" type="curve"/>
      <point x="556" y="535" type="line"/>
      <point x="574" y="651"/>
      <point x="505" y="728"/>
      <point x="377" y="739" type="curve"/>
      <point x="398" y="870" type="line"/>
      <point x="333" y="870" type="line"/>
      <point x="312" y="739" type="line"/>
      <point x="181" y="727"/>
      <point x="89" y="647"/>
      <point x="71" y="529" type="curve" smooth="yes"/>
      <point x="54" y="418"/>
      <point x="111" y="337"/>
      <point x="232" y="305" type="curve" smooth="yes"/>
      <point x="243" y="302" type="line"/>
      <point x="214" y="121" type="line"/>
      <point x="157" y="123"/>
      <point x="110" y="125"/>
      <point x="83" y="136" type="curve"/>
      <point x="-415" y="325" type="line"/>
      <point x="-39" y="469" type="line"/>
      <point x="-18" y="609" type="line"/>
      <point x="-511" y="400" type="line"/>
      <point x="-533" y="257" type="line"/>
      <point x="16" y="24" type="line" smooth="yes"/>
      <point x="58" y="6"/>
      <point x="123" y="-6"/>
      <point x="194" y="-9" type="curve"/>
    </contour>
    <contour>
      <point x="279" y="122" type="curve"/>
      <point x="316" y="351" type="line"/>
      <point x="248" y="290" type="line"/>
      <point x="330" y="298"/>
      <point x="374" y="257"/>
      <point x="365" y="199" type="curve" smooth="yes"/>
      <point x="358" y="157"/>
      <point x="326" y="129"/>
    </contour>
    <contour>
      <point x="256" y="387" type="line"/>
      <point x="320" y="444" type="line"/>
      <point x="249" y="441"/>
      <point x="212" y="475"/>
      <point x="222" y="535" type="curve" smooth="yes"/>
      <point x="228" y="573"/>
      <point x="253" y="598"/>
      <point x="291" y="607" type="curve"/>
    </contour>
  </outline>
</glyph>
<glyph name="less_dollar_greater.liga" format="2">
  <advance width="600"/>
  <outline>
    <contour>
      <point x="-396" y="-140" type="line"/>
      <point x="-331" y="-140" type="line"/>
      <point x="-310" y="-9" type="line"/>
      <point x="-173" y="2"/>
      <point x="-72" y="86"/>
      <point x="-53" y="206" type="curve" smooth="yes"/>
      <point x="-35" y="324"/>
      <point x="-90" y="398"/>
      <point x="-215" y="428" type="curve" smooth="yes"/>
      <point x="-240" y="434" type="line"/>
      <point x="-213" y="608" type="line"/>
      <point x="-183" y="605"/>
      <point x="-157" y="602"/>
      <point x="-131" y="589" type="curve"/>
      <point x="401" y="334" type="line"/>
      <point x="25" y="190" type="line"/>
      <point x="4" y="49" type="line"/>
      <point x="497" y="258" type="line"/>
      <point x="520" y="401" type="line"/>
      <point x="-62" y="694" type="line" smooth="yes"/>
      <point x="-106" y="716"/>
      <point x="-153" y="732"/>
      <point x="-192" y="737" type="curve"/>
      <point x="-171" y="870" type="line"/>
      <point x="-236" y="870" type="line"/>
      <point x="-257" y="739" type="line"/>
      <point x="-388" y="727"/>
      <point x="-480" y="647"/>
      <point x="-498" y="529" type="curve" smooth="yes"/>
      <point x="-516" y="414"/>
      <point x="-457" y="338"/>
      <point x="-338" y="306" type="curve" smooth="yes"/>
      <point x="-327" y="303" type="line"/>
      <point x="-355" y="121" type="line"/>
      <point x="-412" y="123"/>
      <point x="-459" y="124"/>
      <point x="-486" y="135" type="curve"/>
      <point x="-985" y="324" type="line"/>
      <point x="-609" y="468" type="line"/>
      <point x="-588" y="609" type="line"/>
      <point x="-1081" y="400" type="line"/>
      <point x="-1103" y="257" type="line"/>
      <point x="-553" y="24" type="line" smooth="yes"/>
      <point x="-511" y="6"/>
      <point x="-446" y="-6"/>
      <point x="-375" y="-9" type="curve"/>
    </contour>
    <contour>
      <point x="-290" y="122" type="curve"/>
      <point x="-258" y="324" type="line"/>
      <point x="-322" y="291" type="line"/>
      <point x="-240" y="299"/>
      <point x="-195" y="257"/>
      <point x="-204" y="199" type="curve" smooth="yes"/>
      <point x="-211" y="157"/>
      <point x="-243" y="129"/>
    </contour>
    <contour>
      <point x="-308" y="414" type="line"/>
      <point x="-248" y="443" type="line"/>
      <point x="-320" y="440"/>
      <point x="-356" y="480"/>
      <point x="-347" y="535" type="curve" smooth="yes"/>
      <point x="-341" y="573"/>
      <point x="-316" y="598"/>
      <point x="-278" y="607" type="curve"/>
    </contour>
  </outline>
</glyph>
<glyph name="less_equal_bar.liga" format="2">
  <advance width="600"/>
  <outline>
    <contour>
      <point x="-948" y="35" type="line"/>
      <point x="-777" y="35" type="line"/>
      <point x="-835" y="135" type="line"/>
      <point x="307" y="135" type="line"/>
      <point x="292" y="35" type="line"/>
      <point x="442" y="35" type="line"/>
      <point x="535" y="625" type="line"/>
      <point x="385" y="625" type="line"/>
      <point x="369" y="525" type="line"/>
      <point x="-764" y="525" type="line"/>
      <point x="-673" y="625" type="line"/>
      <point x="-854" y="625" type="line"/>
      <point x="-1122" y="330" type="line"/>
    </contour>
    <contour>
      <point x="-916" y="275" type="line"/>
      <point x="-944" y="327" type="line"/>
      <point x="-891" y="385" type="line"/>
      <point x="347" y="385" type="line"/>
      <point x="330" y="275" type="line"/>
    </contour>
  </outline>
</glyph>
<glyph name="less_equal_equal.liga" format="2">
  <advance width="600"/>
  <outline>
    <contour>
      <point x="-910" y="35" type="line"/>
      <point x="-733" y="35" type="line"/>
      <point x="-807" y="135" type="line"/>
      <point x="520" y="135" type="line"/>
      <point x="520" y="275" type="line"/>
      <point x="-910" y="275" type="line"/>
      <point x="-950" y="331" type="line"/>
      <point x="-912" y="385" type="line"/>
      <point x="520" y="385" type="line"/>
      <point x="520" y="525" type="line"/>
      <point x="-808" y="525" type="line"/>
      <point x="-733" y="625" type="line"/>
      <point x="-909" y="625" type="line"/>
      <point x="-1130" y="330" type="line"/>
    </contour>
  </outline>
</glyph>
<glyph name="less_exclam_hyphen_hyphen.liga" format="2">
  <advance width="600"/>
  <outline>
    <contour>
      <point x="-1548" y="35" type="line"/>
      <point x="-1371" y="35" type="line"/>
      <point x="-1494" y="246" type="line" smooth="yes"/>
      <point x="-1526" y="301"/>
      <point x="-1542" y="327"/>
      <point x="-1546" y="331" type="curve"/>
      <point x="-1542" y="335"/>
      <point x="-1518" y="361"/>
      <point x="-1468" y="415" type="curve" smooth="yes"/>
      <point x="-1278" y="625" type="line"/>
      <point x="-1454" y="625" type="line"/>
      <point x="-1722" y="330" type="line"/>
    </contour>
    <contour>
      <point x="-1603" y="260" type="line"/>
      <point x="-1113" y="260" type="line"/>
      <point x="-1091" y="400" type="line"/>
      <point x="-1581" y="400" type="line"/>
    </contour>
    <contour>
      <point x="-693" y="260" type="line"/>
      <point x="517" y="260" type="line"/>
      <point x="539" y="400" type="line"/>
      <point x="-671" y="400" type="line"/>
    </contour>
    <component base="exclam" yxScale="0.15838" xOffset="-1244"/>
  </outline>
</glyph>
<glyph name="less_greater.liga" format="2">
  <advance width="600"/>
  <outline>
    <contour>
      <point x="-41" y="20" type="line"/>
      <point x="457" y="258" type="line"/>
      <point x="480" y="401" type="line"/>
      <point x="57" y="640" type="line"/>
      <point x="-440" y="401" type="line"/>
      <point x="-463" y="258" type="line"/>
    </contour>
    <contour>
      <point x="-25" y="157" type="line"/>
      <point x="-273" y="304" type="line" smooth="yes"/>
      <point x="-297" y="318"/>
      <point x="-325" y="327"/>
      <point x="-339" y="330" type="curve"/>
      <point x="-324" y="331"/>
      <point x="-293" y="339"/>
      <point x="-265" y="353" type="curve" smooth="yes"/>
      <point x="38" y="504" type="line"/>
      <point x="289" y="355" type="line" smooth="yes"/>
      <point x="313" y="341"/>
      <point x="341" y="333"/>
      <point x="356" y="331" type="curve"/>
      <point x="341" y="330"/>
      <point x="311" y="323"/>
      <point x="281" y="308" type="curve" smooth="yes"/>
    </contour>
  </outline>
</glyph>
<glyph name="less_hyphen_bar.liga" format="2">
  <advance width="600"/>
  <outline>
    <contour>
      <point x="330" y="400" type="line"/>
      <point x="-901" y="400" type="line"/>
      <point x="-733" y="625" type="line"/>
      <point x="-909" y="625" type="line"/>
      <point x="-1130" y="330" type="line"/>
      <point x="-910" y="35" type="line"/>
      <point x="-733" y="35" type="line"/>
      <point x="-899" y="260" type="line"/>
      <point x="330" y="260" type="line"/>
      <point x="330" y="35" type="line"/>
      <point x="480" y="35" type="line"/>
      <point x="480" y="625" type="line"/>
      <point x="330" y="625" type="line"/>
    </contour>
  </outline>
</glyph>
<glyph name="less_hyphen_greater.liga" format="2">
  <advance width="600"/>
  <outline>
    <contour>
      <point x="-948" y="35" type="line"/>
      <point x="-776" y="35" type="line"/>
      <point x="-907" y="260" type="line"/>
      <point x="293" y="260" type="line"/>
      <point x="90" y="35" type="line"/>
      <point x="271" y="35" type="line"/>
      <point x="538" y="330" type="line"/>
      <point x="365" y="625" type="line"/>
      <point x="194" y="625" type="line"/>
      <point x="324" y="400" type="line"/>
      <point x="-876" y="400" type="line"/>
      <point x="-672" y="625" type="line"/>
      <point x="-854" y="625" type="line"/>
      <point x="-1122" y="330" type="line"/>
    </contour>
  </outline>
</glyph>
<glyph name="less_hyphen_hyphen.liga" format="2">
  <advance width="600"/>
  <outline>
    <contour>
      <point x="-948" y="35" type="line"/>
      <point x="-771" y="35" type="line"/>
      <point x="-894" y="246" type="line" smooth="yes"/>
      <point x="-897" y="251"/>
      <point x="-899" y="256"/>
      <point x="-902" y="260" type="curve"/>
      <point x="517" y="260" type="line"/>
      <point x="539" y="400" type="line"/>
      <point x="-882" y="400" type="line"/>
      <point x="-878" y="405"/>
      <point x="-873" y="410"/>
      <point x="-868" y="415" type="curve" smooth="yes"/>
      <point x="-678" y="625" type="line"/>
      <point x="-854" y="625" type="line"/>
      <point x="-1122" y="330" type="line"/>
    </contour>
  </outline>
</glyph>
<glyph name="less_less_asciitilde.liga" format="2">
  <advance width="600"/>
  <outline>
    <contour>
      <point x="-628" y="35" type="line"/>
      <point x="-455" y="35" type="line"/>
      <point x="-627" y="325" type="line"/>
      <point x="-622" y="331" type="line"/>
      <point x="-566" y="330" type="line" smooth="yes"/>
      <point x="-511" y="330"/>
      <point x="-507" y="230"/>
      <point x="-387" y="230" type="curve" smooth="yes"/>
      <point x="-267" y="230"/>
      <point x="-231" y="330"/>
      <point x="-176" y="330" type="curve" smooth="yes"/>
      <point x="-121" y="330"/>
      <point x="-117" y="230"/>
      <point x="3" y="230" type="curve" smooth="yes"/>
      <point x="123" y="230"/>
      <point x="159" y="330"/>
      <point x="214" y="330" type="curve" smooth="yes"/>
      <point x="269" y="330"/>
      <point x="273" y="230"/>
      <point x="383" y="230" type="curve" smooth="yes"/>
      <point x="467" y="230"/>
      <point x="531" y="280"/>
      <point x="543" y="355" type="curve" smooth="yes"/>
      <point x="550" y="400" type="line"/>
      <point x="440" y="400" type="line"/>
      <point x="435" y="368" type="line" smooth="yes"/>
      <point x="431" y="345"/>
      <point x="416" y="330"/>
      <point x="389" y="330" type="curve" smooth="yes"/>
      <point x="334" y="330"/>
      <point x="350" y="430"/>
      <point x="230" y="430" type="curve" smooth="yes"/>
      <point x="110" y="430"/>
      <point x="74" y="330"/>
      <point x="19" y="330" type="curve" smooth="yes"/>
      <point x="-36" y="330"/>
      <point x="-50" y="430"/>
      <point x="-160" y="430" type="curve" smooth="yes"/>
      <point x="-280" y="430"/>
      <point x="-316" y="330"/>
      <point x="-371" y="330" type="curve" smooth="yes"/>
      <point x="-435" y="330"/>
      <point x="-443" y="465"/>
      <point x="-611" y="421" type="curve"/>
      <point x="-578" y="379" type="line"/>
      <point x="-353" y="625" type="line"/>
      <point x="-533" y="625" type="line"/>
      <point x="-801" y="330" type="line"/>
    </contour>
    <contour>
      <point x="-948" y="35" type="line"/>
      <point x="-775" y="35" type="line"/>
      <point x="-945" y="325" type="line"/>
      <point x="-673" y="625" type="line"/>
      <point x="-853" y="625" type="line"/>
      <point x="-1121" y="330" type="line"/>
    </contour>
  </outline>
</glyph>
<glyph name="less_less_equal.liga" format="2">
  <advance width="600"/>
  <outline>
    <contour>
      <point x="-590" y="35" type="line"/>
      <point x="-413" y="35" type="line"/>
      <point x="-487" y="135" type="line"/>
      <point x="520" y="135" type="line"/>
      <point x="520" y="275" type="line"/>
      <point x="-591" y="275" type="line"/>
      <point x="-634" y="331" type="line"/>
      <point x="-593" y="385" type="line"/>
      <point x="520" y="385" type="line"/>
      <point x="520" y="525" type="line"/>
      <point x="-488" y="525" type="line"/>
      <point x="-413" y="625" type="line"/>
      <point x="-589" y="625" type="line"/>
      <point x="-810" y="330" type="line"/>
    </contour>
    <contour>
      <point x="-910" y="35" type="line"/>
      <point x="-733" y="35" type="line"/>
      <point x="-952" y="331" type="line"/>
      <point x="-733" y="625" type="line"/>
      <point x="-909" y="625" type="line"/>
      <point x="-1130" y="330" type="line"/>
    </contour>
  </outline>
</glyph>
<glyph name="less_less_hyphen.liga" format="2">
  <advance width="600"/>
  <outline>
    <contour>
      <point x="-590" y="35" type="line"/>
      <point x="-413" y="35" type="line"/>
      <point x="-579" y="260" type="line"/>
      <point x="520" y="260" type="line"/>
      <point x="520" y="400" type="line"/>
      <point x="-581" y="400" type="line"/>
      <point x="-413" y="625" type="line"/>
      <point x="-589" y="625" type="line"/>
      <point x="-810" y="330" type="line"/>
    </contour>
    <contour>
      <point x="-910" y="35" type="line"/>
      <point x="-733" y="35" type="line"/>
      <point x="-952" y="331" type="line"/>
      <point x="-733" y="625" type="line"/>
      <point x="-909" y="625" type="line"/>
      <point x="-1130" y="330" type="line"/>
    </contour>
  </outline>
</glyph>
<glyph name="less_slash_greater.liga" format="2">
  <advance width="600"/>
  <outline>
    <contour>
      <point x="-611" y="-110" type="line"/>
      <point x="-454" y="-110" type="line"/>
      <point x="-111" y="546" type="line"/>
      <point x="347" y="333" type="line"/>
      <point x="-25" y="189" type="line"/>
      <point x="-46" y="49" type="line"/>
      <point x="447" y="258" type="line"/>
      <point x="470" y="401" type="line"/>
      <point x="-52" y="660" type="line"/>
      <point x="37" y="830" type="line"/>
      <point x="-120" y="830" type="line"/>
      <point x="-489" y="125" type="line"/>
      <point x="-932" y="325" type="line"/>
      <point x="-559" y="469" type="line"/>
      <point x="-538" y="609" type="line"/>
      <point x="-1031" y="400" type="line"/>
      <point x="-1053" y="257" type="line"/>
      <point x="-547" y="12" type="line"/>
    </contour>
  </outline>
</glyph>
<glyph name="numbersign_bracketleft.liga" format="2">
  <advance width="600"/>
  <outline>
    <contour>
      <point x="-568" y="0" type="line"/>
      <point x="-468" y="0" type="line"/>
      <point x="-410" y="175" type="line"/>
      <point x="-280" y="175" type="line"/>
      <point x="-338" y="0" type="line"/>
      <point x="-238" y="0" type="line"/>
      <point x="-180" y="175" type="line"/>
      <point x="252" y="175" type="line"/>
      <point x="268" y="275" type="line"/>
      <point x="-147" y="275" type="line"/>
      <point x="-90" y="455" type="line"/>
      <point x="296" y="455" type="line"/>
      <point x="312" y="555" type="line"/>
      <point x="-57" y="555" type="line"/>
      <point x="2" y="730" type="line"/>
      <point x="-98" y="730" type="line"/>
      <point x="-157" y="555" type="line"/>
      <point x="-287" y="555" type="line"/>
      <point x="-228" y="730" type="line"/>
      <point x="-328" y="730" type="line"/>
      <point x="-387" y="555" type="line"/>
      <point x="-483" y="555" type="line"/>
      <point x="-499" y="455" type="line"/>
      <point x="-420" y="455" type="line"/>
      <point x="-477" y="275" type="line"/>
      <point x="-562" y="275" type="line"/>
      <point x="-578" y="175" type="line"/>
      <point x="-510" y="175" type="line"/>
    </contour>
    <contour>
      <point x="-377" y="275" type="line"/>
      <point x="-320" y="455" type="line"/>
      <point x="-190" y="455" type="line"/>
      <point x="-247" y="275" type="line"/>
    </contour>
    <component base="bracketleft"/>
  </outline>
</glyph>
<glyph name="numbersign_numbersign.liga" format="2">
  <advance width="600"/>
  <outline>
    <contour>
      <point x="-498" y="0" type="line"/>
      <point x="-398" y="0" type="line"/>
      <point x="-368" y="175" type="line"/>
      <point x="-238" y="175" type="line"/>
      <point x="-268" y="0" type="line"/>
      <point x="-168" y="0" type="line"/>
      <point x="-138" y="175" type="line"/>
      <point x="72" y="175" type="line"/>
      <point x="42" y="0" type="line"/>
      <point x="142" y="0" type="line"/>
      <point x="172" y="175" type="line"/>
      <point x="302" y="175" type="line"/>
      <point x="272" y="0" type="line"/>
      <point x="372" y="0" type="line"/>
      <point x="402" y="175" type="line"/>
      <point x="499" y="175" type="line"/>
      <point x="499" y="275" type="line"/>
      <point x="419" y="275" type="line"/>
      <point x="448" y="455" type="line"/>
      <point x="534" y="455" type="line"/>
      <point x="534" y="555" type="line"/>
      <point x="465" y="555" type="line"/>
      <point x="496" y="730" type="line"/>
      <point x="396" y="730" type="line"/>
      <point x="365" y="555" type="line"/>
      <point x="235" y="555" type="line"/>
      <point x="266" y="730" type="line"/>
      <point x="166" y="730" type="line"/>
      <point x="135" y="555" type="line"/>
      <point x="-75" y="555" type="line"/>
      <point x="-44" y="730" type="line"/>
      <point x="-144" y="730" type="line"/>
      <point x="-175" y="555" type="line"/>
      <point x="-305" y="555" type="line"/>
      <point x="-274" y="730" type="line"/>
      <point x="-374" y="730" type="line"/>
      <point x="-405" y="555" type="line"/>
      <point x="-501" y="555" type="line"/>
      <point x="-501" y="455" type="line"/>
      <point x="-422" y="455" type="line"/>
      <point x="-451" y="275" type="line"/>
      <point x="-536" y="275" type="line"/>
      <point x="-536" y="175" type="line"/>
      <point x="-468" y="175" type="line"/>
    </contour>
    <contour>
      <point x="-351" y="275" type="line"/>
      <point x="-322" y="455" type="line"/>
      <point x="-192" y="455" type="line"/>
      <point x="-221" y="275" type="line"/>
    </contour>
    <contour>
      <point x="-121" y="275" type="line"/>
      <point x="-92" y="455" type="line"/>
      <point x="118" y="455" type="line"/>
      <point x="89" y="275" type="line"/>
    </contour>
    <contour>
      <point x="189" y="275" type="line"/>
      <point x="218" y="455" type="line"/>
      <point x="348" y="455" type="line"/>
      <point x="319" y="275" type="line"/>
    </contour>
  </outline>
</glyph>
<glyph name="numbersign_numbersign_numbersign_numbersign.liga" format="2">
  <advance width="600"/>
  <outline>
    <contour>
      <point x="-1678" y="0" type="line"/>
      <point x="-1578" y="0" type="line"/>
      <point x="-1548" y="175" type="line"/>
      <point x="-1418" y="175" type="line"/>
      <point x="-1448" y="0" type="line"/>
      <point x="-1348" y="0" type="line"/>
      <point x="-1318" y="175" type="line"/>
      <point x="-1067" y="175" type="line"/>
      <point x="-1097" y="0" type="line"/>
      <point x="-997" y="0" type="line"/>
      <point x="-967" y="175" type="line"/>
      <point x="-837" y="175" type="line"/>
      <point x="-867" y="0" type="line"/>
      <point x="-767" y="0" type="line"/>
      <point x="-737" y="175" type="line"/>
      <point x="-498" y="175" type="line"/>
      <point x="-528" y="0" type="line"/>
      <point x="-428" y="0" type="line"/>
      <point x="-398" y="175" type="line"/>
      <point x="-268" y="175" type="line"/>
      <point x="-298" y="0" type="line"/>
      <point x="-198" y="0" type="line"/>
      <point x="-168" y="175" type="line"/>
      <point x="72" y="175" type="line"/>
      <point x="42" y="0" type="line"/>
      <point x="142" y="0" type="line"/>
      <point x="172" y="175" type="line"/>
      <point x="302" y="175" type="line"/>
      <point x="272" y="0" type="line"/>
      <point x="372" y="0" type="line"/>
      <point x="402" y="175" type="line"/>
      <point x="499" y="175" type="line"/>
      <point x="499" y="275" type="line"/>
      <point x="419" y="275" type="line"/>
      <point x="448" y="455" type="line"/>
      <point x="534" y="455" type="line"/>
      <point x="534" y="555" type="line"/>
      <point x="465" y="555" type="line"/>
      <point x="496" y="730" type="line"/>
      <point x="396" y="730" type="line"/>
      <point x="365" y="555" type="line"/>
      <point x="235" y="555" type="line"/>
      <point x="266" y="730" type="line"/>
      <point x="166" y="730" type="line"/>
      <point x="135" y="555" type="line"/>
      <point x="-105" y="555" type="line"/>
      <point x="-74" y="730" type="line"/>
      <point x="-174" y="730" type="line"/>
      <point x="-205" y="555" type="line"/>
      <point x="-335" y="555" type="line"/>
      <point x="-304" y="730" type="line"/>
      <point x="-404" y="730" type="line"/>
      <point x="-435" y="555" type="line"/>
      <point x="-674" y="555" type="line"/>
      <point x="-643" y="730" type="line"/>
      <point x="-743" y="730" type="line"/>
      <point x="-774" y="555" type="line"/>
      <point x="-904" y="555" type="line"/>
      <point x="-873" y="730" type="line"/>
      <point x="-973" y="730" type="line"/>
      <point x="-1004" y="555" type="line"/>
      <point x="-1255" y="555" type="line"/>
      <point x="-1224" y="730" type="line"/>
      <point x="-1324" y="730" type="line"/>
      <point x="-1355" y="555" type="line"/>
      <point x="-1485" y="555" type="line"/>
      <point x="-1454" y="730" type="line"/>
      <point x="-1554" y="730" type="line"/>
      <point x="-1585" y="555" type="line"/>
      <point x="-1681" y="555" type="line"/>
      <point x="-1681" y="455" type="line"/>
      <point x="-1602" y="455" type="line"/>
      <point x="-1631" y="275" type="line"/>
      <point x="-1716" y="275" type="line"/>
      <point x="-1716" y="175" type="line"/>
      <point x="-1648" y="175" type="line"/>
    </contour>
    <contour>
      <point x="-1531" y="275" type="line"/>
      <point x="-1502" y="455" type="line"/>
      <point x="-1372" y="455" type="line"/>
      <point x="-1401" y="275" type="line"/>
    </contour>
    <contour>
      <point x="-1301" y="275" type="line"/>
      <point x="-1272" y="455" type="line"/>
      <point x="-1021" y="455" type="line"/>
      <point x="-1050" y="275" type="line"/>
    </contour>
    <contour>
      <point x="-950" y="275" type="line"/>
      <point x="-921" y="455" type="line"/>
      <point x="-791" y="455" type="line"/>
      <point x="-820" y="275" type="line"/>
    </contour>
    <contour>
      <point x="-720" y="275" type="line"/>
      <point x="-691" y="455" type="line"/>
      <point x="-452" y="455" type="line"/>
      <point x="-481" y="275" type="line"/>
    </contour>
    <contour>
      <point x="-381" y="275" type="line"/>
      <point x="-352" y="455" type="line"/>
      <point x="-222" y="455" type="line"/>
      <point x="-251" y="275" type="line"/>
    </contour>
    <contour>
      <point x="-151" y="275" type="line"/>
      <point x="-122" y="455" type="line"/>
      <point x="118" y="455" type="line"/>
      <point x="89" y="275" type="line"/>
    </contour>
    <contour>
      <point x="189" y="275" type="line"/>
      <point x="218" y="455" type="line"/>
      <point x="348" y="455" type="line"/>
      <point x="319" y="275" type="line"/>
    </contour>
  </outline>
</glyph>
<glyph name="numbersign_parenleft.liga" format="2">
  <advance width="600"/>
  <outline>
    <contour>
      <point x="-571" y="0" type="line"/>
      <point x="-471" y="0" type="line"/>
      <point x="-413" y="175" type="line"/>
      <point x="-283" y="175" type="line"/>
      <point x="-341" y="0" type="line"/>
      <point x="-241" y="0" type="line"/>
      <point x="-183" y="175" type="line"/>
      <point x="249" y="175" type="line"/>
      <point x="265" y="275" type="line"/>
      <point x="-150" y="275" type="line"/>
      <point x="-93" y="455" type="line"/>
      <point x="293" y="455" type="line"/>
      <point x="309" y="555" type="line"/>
      <point x="-60" y="555" type="line"/>
      <point x="-1" y="730" type="line"/>
      <point x="-101" y="730" type="line"/>
      <point x="-160" y="555" type="line"/>
      <point x="-290" y="555" type="line"/>
      <point x="-231" y="730" type="line"/>
      <point x="-331" y="730" type="line"/>
      <point x="-390" y="555" type="line"/>
      <point x="-486" y="555" type="line"/>
      <point x="-502" y="455" type="line"/>
      <point x="-423" y="455" type="line"/>
      <point x="-480" y="275" type="line"/>
      <point x="-565" y="275" type="line"/>
      <point x="-581" y="175" type="line"/>
      <point x="-513" y="175" type="line"/>
    </contour>
    <contour>
      <point x="-380" y="275" type="line"/>
      <point x="-323" y="455" type="line"/>
      <point x="-193" y="455" type="line"/>
      <point x="-250" y="275" type="line"/>
    </contour>
    <component base="parenleft"/>
  </outline>
</glyph>
<glyph name="numbersign_underscore.liga" format="2">
  <advance width="600"/>
  <outline>
    <contour>
      <point x="-397" y="-165" type="line"/>
      <point x="480" y="-165" type="line"/>
      <point x="502" y="-25" type="line"/>
      <point x="-251" y="-25" type="line"/>
      <point x="-184" y="175" type="line"/>
      <point x="-87" y="175" type="line"/>
      <point x="-71" y="275" type="line"/>
      <point x="-151" y="275" type="line"/>
      <point x="-94" y="455" type="line"/>
      <point x="-8" y="455" type="line"/>
      <point x="8" y="555" type="line"/>
      <point x="-61" y="555" type="line"/>
      <point x="-2" y="730" type="line"/>
      <point x="-102" y="730" type="line"/>
      <point x="-161" y="555" type="line"/>
      <point x="-291" y="555" type="line"/>
      <point x="-232" y="730" type="line"/>
      <point x="-332" y="730" type="line"/>
      <point x="-391" y="555" type="line"/>
      <point x="-487" y="555" type="line"/>
      <point x="-503" y="455" type="line"/>
      <point x="-424" y="455" type="line"/>
      <point x="-481" y="275" type="line"/>
      <point x="-566" y="275" type="line"/>
      <point x="-582" y="175" type="line"/>
      <point x="-514" y="175" type="line"/>
      <point x="-572" y="0" type="line"/>
      <point x="-472" y="0" type="line"/>
      <point x="-414" y="175" type="line"/>
      <point x="-284" y="175" type="line"/>
    </contour>
    <contour>
      <point x="-381" y="275" type="line"/>
      <point x="-324" y="455" type="line"/>
      <point x="-194" y="455" type="line"/>
      <point x="-251" y="275" type="line"/>
    </contour>
  </outline>
</glyph>
<glyph name="ogonekcomb.case" format="2">
  <anchor x="-300" y="0" name="_ogonek"/>
  <outline>
    <contour>
      <point x="-304" y="-225" type="curve" smooth="yes"/>
      <point x="-196" y="-225" type="line"/>
      <point x="-196" y="-120" type="line"/>
      <point x="-265" y="-120" type="line" smooth="yes"/>
      <point x="-294" y="-120"/>
      <point x="-311" y="-103"/>
      <point x="-311" y="-83" type="curve" smooth="yes"/>
      <point x="-311" y="-66"/>
      <point x="-296" y="-42"/>
      <point x="-270" y="-18" type="curve" smooth="yes"/>
      <point x="-238" y="11" type="line"/>
      <point x="-324" y="11" type="line"/>
      <point x="-392" y="-19"/>
      <point x="-435" y="-68"/>
      <point x="-435" y="-115" type="curve" smooth="yes"/>
      <point x="-435" y="-180"/>
      <point x="-385" y="-225"/>
    </contour>
  </outline>
</glyph>
<glyph name="one.half" format="2">
  <advance width="400"/>
  <outline>
    <contour>
      <point x="5" y="0" type="line"/>
      <point x="326" y="0" type="line"/>
      <point x="339" y="80" type="line"/>
      <point x="235" y="80" type="line"/>
      <point x="275" y="335" type="line"/>
      <point x="164" y="335" type="line"/>
      <point x="56" y="264" type="line"/>
      <point x="41" y="164" type="line"/>
      <point x="177" y="251" type="line"/>
      <point x="149" y="80" type="line"/>
      <point x="18" y="80" type="line"/>
    </contour>
  </outline>
</glyph>
<glyph name="ringcomb.case" format="2">
  <anchor x="-300" y="730" name="_top"/>
  <anchor x="-300" y="1007" name="top"/>
  <outline>
    <contour>
      <point x="-300" y="753" type="curve" smooth="yes"/>
      <point x="-216" y="753"/>
      <point x="-160" y="804"/>
      <point x="-160" y="880" type="curve" smooth="yes"/>
      <point x="-160" y="956"/>
      <point x="-216" y="1007"/>
      <point x="-300" y="1007" type="curve" smooth="yes"/>
      <point x="-384" y="1007"/>
      <point x="-440" y="956"/>
      <point x="-440" y="880" type="curve" smooth="yes"/>
      <point x="-440" y="804"/>
      <point x="-384" y="753"/>
    </contour>
    <contour>
      <point x="-300" y="823" type="curve" smooth="yes"/>
      <point x="-336" y="823"/>
      <point x="-360" y="846"/>
      <point x="-360" y="880" type="curve" smooth="yes"/>
      <point x="-360" y="914"/>
      <point x="-336" y="937"/>
      <point x="-300" y="937" type="curve" smooth="yes"/>
      <point x="-264" y="937"/>
      <point x="-240" y="914"/>
      <point x="-240" y="880" type="curve" smooth="yes"/>
      <point x="-240" y="846"/>
      <point x="-264" y="823"/>
    </contour>
  </outline>
</glyph>
<glyph name="slash_equal_equal.liga" format="2">
  <advance width="600"/>
  <outline>
    <contour>
      <point x="-915" y="135" type="line"/>
      <point x="467" y="135" type="line"/>
      <point x="489" y="274" type="line"/>
      <point x="-893" y="274" type="line"/>
    </contour>
    <contour>
      <point x="-795" y="385" type="line"/>
      <point x="507" y="385" type="line"/>
      <point x="529" y="524" type="line"/>
      <point x="-773" y="524" type="line"/>
    </contour>
    <component base="slash" yxScale="0.15838" xOffset="-1214"/>
  </outline>
</glyph>
<glyph name="tonos.case" format="2">
  <advance width="600"/>
  <outline>
    <contour>
      <point x="205" y="570" type="line"/>
      <point x="329" y="570" type="line"/>
      <point x="395" y="730" type="line"/>
      <point x="263" y="730" type="line"/>
    </contour>
  </outline>
</glyph>
<glyph name="zero.zero" format="2">
  <advance width="600"/>
  <outline>
    <contour>
      <point x="254" y="-10" type="curve" smooth="yes"/>
      <point x="401" y="-10"/>
      <point x="508" y="78"/>
      <point x="529" y="210" type="curve" smooth="yes"/>
      <point x="578" y="520" type="line" smooth="yes"/>
      <point x="599" y="652"/>
      <point x="520" y="740"/>
      <point x="373" y="740" type="curve" smooth="yes"/>
      <point x="226" y="740"/>
      <point x="119" y="652"/>
      <point x="98" y="520" type="curve" smooth="yes"/>
      <point x="49" y="210" type="line" smooth="yes"/>
      <point x="28" y="78"/>
      <point x="107" y="-10"/>
    </contour>
    <contour>
      <point x="274" y="115" type="curve" smooth="yes"/>
      <point x="214" y="115"/>
      <point x="180" y="152"/>
      <point x="189" y="210" type="curve" smooth="yes"/>
      <point x="238" y="520" type="line" smooth="yes"/>
      <point x="248" y="578"/>
      <point x="292" y="615"/>
      <point x="353" y="615" type="curve" smooth="yes"/>
      <point x="414" y="615"/>
      <point x="448" y="578"/>
      <point x="438" y="520" type="curve" smooth="yes"/>
      <point x="389" y="210" type="line" smooth="yes"/>
      <point x="380" y="152"/>
      <point x="334" y="115"/>
    </contour>
    <contour>
      <point x="70" y="180" type="line"/>
      <point x="160" y="180" type="line"/>
      <point x="558" y="550" type="line"/>
      <point x="468" y="550" type="line"/>
    </contour>
  </outline>
</glyph>
